<svg version="1.2" xmlns="http://www.w3.org/2000/svg" viewBox="0 0 4000 4000" width="300" height="300"><style>.a{fill:#fbfdff}.b{fill:#371a45}.c{fill:#bfceda}.d{fill:#fff}.e{fill:#fce34e}.f{fill:#ecb82b}.g{fill:#fff200}.h{fill:#220f2d}.i{fill:#22a7f0}.j{fill:#1c7aea}</style><path class="a" d="m2288.7 2836.6l207 39.8c18.9 3.6 38.3-0.2 54.4-10.7 56.2-36.5 181.8-146.3 248.3-424.8 87.4-365.9-271.2-365.9-276.7-356.8-5.4 9.1-129.9 322.5-135.9 357.8-6 35.4-97.1 394.7-97.1 394.7z"/><g style="opacity:.3"><path class="b" d="m2704.9 2345.9c0 0-26.6 320.4-232.3 450.9l-114.7-11.6c0 0 203.9-470.7 203.9-469.4 0 1.3 71.4-123.2 143.1 30.1z"/></g><path fill-rule="evenodd" class="b" d="m2509.8 2895.6c-5.8 0-11.7-0.6-17.5-1.7l-225.6-43.3 4.6-18.3c31.5-124.1 92.2-365.9 96.9-393.4 6.2-36.8 130.9-351.7 138.2-364 3.5-5.8 8.8-14.7 62.2-9.6 24.3 2.4 61.4 8.5 101 24.7 78.6 32 202.1 120.8 146.2 355-68.7 287.7-201.9 400.5-255.9 435.7-15.1 9.8-32.5 14.9-50.1 14.9zm-199.2-72.9l188.5 36.2c14.3 2.7 29-0.2 41.3-8.2 50.5-32.8 174.9-138.8 240.6-414 27.7-115.7 12-204.2-46.5-262.9-68.3-68.5-172.8-75.1-200.3-73.9-20.7 49.1-125.7 315.2-130.8 345.1-5.4 31.3-73.9 303.1-92.8 377.7z"/><path class="a" d="m2407.6 2740c-30.6-22-61.1-26.9-88.9-22.7-16.7 66.8-30 119.3-30 119.3l207 39.8c8.1 1.6 16.3 1.6 24.4 0.5 0 0-10-63.5-112.5-136.9z"/><path class="c" d="m2472.5 2796.8c-15.8-17.5-36.9-36.8-64.9-56.8-8-5.8-16.1-10.4-24.1-13.9-15.6 36-25.6 59.1-25.6 59.1z"/><path fill-rule="evenodd" class="b" d="m2509.3 2895.5q-8.6 0-17-1.6l-225.6-43.3 4.6-18.3c0-0.1 13.3-52.5 30.1-119.3l2.9-11.6 11.8-1.8c36.2-5.4 70.4 3.3 101.9 25.9 107.4 76.8 119.2 145.7 119.7 148.6l2.8 17.9-17.9 2.6q-6.7 0.9-13.3 0.9zm-198.7-72.8l183.4 35.2c-11.6-22.9-37.9-61.3-96.8-103.4-20.5-14.7-41.6-21.5-64.2-20.6-9.5 37.7-17.6 69.8-22.4 88.8z"/><path class="a" d="m3070.3 2507.8c0 57.3-46.4 103.7-103.7 103.7-57.3 0-103.8-46.4-103.8-103.7 0-57.3 46.5-103.8 103.8-103.8 57.3 0 103.7 46.5 103.7 103.8z"/><g style="opacity:.3"><path class="b" d="m3079.9 2464.5c0 57.3-46.5 103.7-103.8 103.7-57.3 0-103.7-46.4-103.7-103.7 0-57.3 46.4-103.8 103.7-103.8 57.3 0 103.8 46.5 103.8 103.8z"/></g><path fill-rule="evenodd" class="b" d="m2966.6 2629.4c-67.1 0-121.6-54.6-121.6-121.6 0-67.1 54.5-121.6 121.6-121.6 67 0 121.6 54.5 121.6 121.6 0 67-54.6 121.6-121.6 121.6zm0-207.5c-47.4 0-85.9 38.5-85.9 85.9 0 47.4 38.5 85.9 85.9 85.9 47.3 0 85.9-38.5 85.9-85.9 0-47.4-38.6-85.9-85.9-85.9z"/><path class="a" d="m1789.6 1780.7c0 0-145.2 50.4-296.3 17.7l-138.3 134.6-40.1 136.6c0 0 178.4 127.4 424.1 84.6 245.8-42.8 302.2-373.5 302.2-373.5z"/><g style="opacity:.3"><path class="b" d="m1410 1998.9c-24.8-11.4-45.7-23.6-63.8-36.1l-31.3 106.8c0 0 129.3 92.2 319.4 93.3l43.8-66 37.3-62.8c0 0 8.7-19.6 22.6-33.3-55.4 23.3-186.9 63.6-328-1.9z"/></g><path class="c" d="m1738 2000.8c17.6-7.4 27.6-13.2 27.6-13.2-10.4-0.5-19.8 5.4-27.6 13.2z"/><path class="a" d="m1653.4 2133.2c-190-1-319.4-93.3-319.4-93.3l20.9-71.3q-4.4-2.9-8.7-5.8l-31.3 106.8c0 0 129.3 92.2 319.4 93.3l43.8-66 4.7-8z"/><path class="a" d="m1734.5 2004.4l-0.2 0.3q1.8-2 3.7-3.9c-0.7 0.3-1.5 0.6-2.2 0.9-0.9 1.7-1.3 2.7-1.3 2.7z"/><path fill-rule="evenodd" class="b" d="m1636.6 2181c-193.9 0-325.6-92.3-332.1-96.9l-10.3-7.4 44.9-153.2 148.6-144.6 9.4 2c144.5 31.3 285.3-16.6 286.7-17.1l2.8-1h275.8l-3.6 20.9c-0.6 3.5-15.1 86.4-60.6 175.8-61.3 120.4-149.9 193.8-256.1 212.3-36.8 6.4-72.1 9.2-105.5 9.2zm-300.8-119.2c41 25.2 198 110 400.2 74.8 195.4-34 265.9-266.5 283.1-338.1h-226.6c-21.7 7.1-152.9 46.8-293.5 19.3l-128.2 124.8z"/><path class="a" d="m2605.6 1852c0 0 192.8 59.1 331.2 140.1 138.3 81.1-249.4 306.8-249.4 306.8l-100.1-40c0 0 84.1 493.3-572.3 706.2l-33.4 51.9-198 24.6-211.6-154.3-21.3-63.2-239.4-24.6-52.8-171.1c0 0 71-245.8 334.9-260.3 0 0 206.6-358 237.1-552.1 30.5-194.2 441.9-150.5 441.9-150.5l236.6 147.4z"/><g style="opacity:.3"><path class="b" d="m1643.1 2607c0 0-101.2 36.9-171.5 138.1l-33.4 288.3c0 0-344.9 29.2-344.5-146.5 0 0-29.5 59.1-32.3 70-2.7 11-1.3 74.2 39.6 100.6 41 26.4 143.4 46.8 143.4 46.8 0 0 41.7 21.3 107.4-24.2l102.3-10.3c0 0 43.7 14.3 46.5-28.2 2.7-42.5 34.8-183.5 34.8-183.5 0 0 55.8-101.2 84.5-129.3 28.8-28.2 93.6-75 75.8-85.2-17.7-10.2-52.6-36.6-52.6-36.6z"/></g><g style="opacity:.3"><path class="b" d="m2538.3 2135.9c-60.9-5.9-110.6 47.2-101.6 107.7 11 74.9 7.7 183.2-54.6 308.8-75.4 151.7-255.7 225.2-358.2 255.8-48.9 14.6-89 49.9-110.3 96.3l-58.9 128.3 126.9-15.8 33.4-51.9c111.2-36.1 201.1-80.2 273.8-128.6l191.2-182q0-0.1 0.1-0.2l70.2-129.9q0.1-0.1 0.1-0.3l37.4-153.5q0-0.1 0-0.1l2.4-79.3c-0.9-20.6-2.9-32.3-2.9-32.3l21.3 8.5 78.8 31.5 39.1-120.1c0 0-75.4-31.9-188.2-42.9z"/></g><path class="a" d="m2571.3 2340.1c0 0-23.8 425.6-573.5 593.1-6.8 2.1-12.6 6.9-15.8 13.3l-28.1 55.5 27.7 15 43.7-63.5 75.1-19.3 172.5-87.3 134.7-106.9 72.5-85.7c0 0 93.5-176.7 101.5-240 7.9-63.3-10.3-74.2-10.3-74.2z"/><path class="a" d="m2691.9 2258.9c0 0-250.8-93.9-269-47.5l75.1 19.4 161.3 56.9 27.6-4.3z"/><path fill-rule="evenodd" class="b" d="m1778.8 3060.2l-221.9-161.8-19.4-57.7-239.8-24.7-57.9-187.5 1.5-5.1c0.8-2.6 19.4-65.6 71.7-130.9 47.5-59.1 132.5-131 269.6-141.6 30.8-54.5 203.1-365.2 230.2-537.7 32.8-208.6 444-167.4 461.4-165.5l4.1 0.4 238.8 148.8 94.5 38.2c15.2 4.7 198.6 62.2 334.2 141.6 32 18.8 38.7 43.5 38.6 61-0.1 106-258.6 259.5-288 276.6l-7.6 4.4-80.9-32.3c2.8 50.1 0.2 156-53.7 274.9-86.8 191.3-264.4 332.2-527.6 418.8l-34.5 53.6zm-191.7-184l201.3 146.8 182.6-22.7 32.4-50.2 6-1.9c256.7-83.3 429-218.4 512.2-401.6 63.5-139.9 51.5-259.4 48.4-282-0.9-6.9 1.9-13.9 7.4-18.3 5.6-4.3 13.1-5.3 19.6-2.7l88.8 35.5c104.7-62.1 262.8-178.5 262.9-241.4 0-7.6-2.2-19.1-21-30.1-134.9-79.1-325.5-137.9-327.4-138.5l-1.5-0.5-98-39.7-234.4-146c-41.5-3.7-392.3-29.8-418.3 135.9-30.7 195.2-230.8 543.5-239.3 558.2l-4.8 8.4-9.7 0.5c-103.7 5.8-188.7 48.8-252.6 127.9-40.3 49.9-59.3 99.4-64.5 114.7l47.6 154.4 239.1 24.6zm996.7-599.5q0 0 0 0zm21.7-16.9q0 0 0 0 0 0 0 0z"/><path class="a" d="m1258.5 2628.4c0 0-64.6 43.7-26.4 95.5 0 0-2.7 75.2-3.6 125.2l-0.4 0.4c-8.2-1.8-145.7-29.5-159.8 103.8-14.6 137.4 188.4 157.4 246.6 156.5 0 0 45.8-53.8 182.8-36.7 1.5 0.1 2.8-1 2.8-2.5-0.8-24.6-3-201.6 92-308.7 2.7-3.1 0.4-7.9-3.7-7.7-44.1 3.3-201.7 4.3-330.3-125.8z"/><path class="c" d="m1588.8 2754.2c-20.1 1.5-63.6 2.5-117.2-9.1q0 0 0 0l-1.1 9.6c22.8 1.9 76.9 6.3 83.9 6.1 8.9-0.3 16.2 8.6 16.2 8.6-24.4 10.3-52.3 12.2-73.2 11.6-16.9-0.4-31.4 12.4-33.3 29.3l-19 163.6c-4.1 35.3-34.2 61.6-69.7 61.3-99.5-1.1-282-20.4-281.7-148.3 0 0-12.3 24.7-21.8 45.2-1.6 6.6-2.8 13.6-3.6 21.2-7.6 71.3 43.4 110.9 102.3 132.5 37.9 11.3 73.8 18.4 73.8 18.5 13.6 2.1 26.4 3.5 37.8 4.3 17.9-1.9 41.6-9.1 69.6-28.5l27.3-2.8c19.6-4.9 44.3-8.1 74.9-7.5h0.1c0 0 0 0 0 0q11.7 0.3 24.5 1.3c10.5-2.3 20.6-9.7 21.9-29.4 1.2-40.4 7.6-113.4 34.9-183.4 0 0 0-0.2 0-0.2 0 0 0.1-0.1 0.1-0.2 13.4-34.2 31.8-67.6 57-96 2.7-3.1 0.4-7.9-3.7-7.7z"/><path class="a" d="m1100.7 2924.2c0 0-20.6 68.2 24.2 105.1 44.4 36.5 139.3 57.8 238.8 49.6 0 0-34.7 30.8-53.3 29.7-18.7-1-124.3-13.2-139.8-22.8-15.4-9.6-82.8-54.7-88.2-74.3-5.5-19.5-5.5-55.9-2.8-65.5 2.8-9.5 13.6-38.3 15.5-40.6 1.8-2.2 14.1 10.6 14.1 10.6z"/><path fill-rule="evenodd" class="b" d="m1323.1 3127.8l-7.9-0.1c-55.6 0.7-175.9-14-232.8-76.3-25.3-27.6-36-61.3-31.9-100 4.4-41.3 20.7-73 48.6-94.2 36.9-28.2 85-29.9 111.9-28.1 0.9-38.7 2.5-84.1 3-99.9-10.1-16.1-13.8-33.5-10.8-50.8 6.4-37.6 41.3-62.1 45.3-64.8l12.3-8.3 10.4 10.5c122.8 124.3 273.1 123.8 316.3 120.6 9.1-0.7 17.7 4.2 21.7 12.5 4.1 8.2 2.8 18-3.3 24.8-91.1 102.6-88.2 276.8-87.6 296.3 0.2 5.9-2.2 11.6-6.6 15.6-4.4 4-10.3 5.9-16.2 5.2-123.8-15.4-166.7 30.3-167.1 30.8zm-127.8-263.5c-21.9 0-51.7 3.8-74.7 21.3-19.7 15.1-31.3 38.5-34.6 69.6-3 28.5 4.4 52.1 22.7 72.2 47.6 52 153.9 64 199.1 64.6 16.9-14.4 68.4-47.7 174.5-38.5 0.4-52.9 8.8-183.9 78.4-280.5-64.8-0.5-192.6-16.4-303.2-120.5-8.1 8-17.1 19.6-19.2 32.1-1.7 9.7 1 19.1 8.1 28.8l3.7 5-0.2 6.2c0 0.7-2.7 73.5-3.6 122.8-0.1 5.7-2.7 11.1-7.1 14.7-4.3 3.7-10.1 5.3-15.7 4.3-4.1-0.7-14.6-2.1-28.2-2.1zm287.3 206.8q0 0.1 0 0.1 0 0 0-0.1zm-272-224.4q0 0 0 0 0 0 0 0z"/><path class="a" d="m1981.6 3017c0 0-283.3-36.9-409.6-199.3l-17.6-0.6c-4.8 8.9-20.3 9.1-24.4 18.3-42.6 98-30.1 215.9-29.5 235.1 0 1.5-1.4 2.7-2.9 2.5-136.9-17-182.7 36.8-182.7 36.8 0 0-48.7 83.3-9.1 137.9 39.6 54.6 449.2 133.8 520.1 122.9 71-10.9 137.9-274.4 137.9-274.4 0 0 32.8-19.1 17.8-79.2z"/><path class="c" d="m1941.5 3172.3q-0.1 0.4-0.3 0.7 0 0.2 0 0.3 0.1-0.5 0.3-1z"/><path class="c" d="m1296.9 3153.2c6-17.6 18-43.4 18-43.4 0 0-10.7 18.3-18 43.4z"/><path class="c" d="m1837.1 3366.8q1.5-0.8 3.1-1.7c-1.7 0.6-2.7 1.2-3.1 1.7z"/><path class="c" d="m1354.1 3240c58.2 30.9 427.3 112.8 466.4 92.8 39.1-20 110.2-252 110.2-252 0 0 22.5-21.3 14.3-34.9 0 0-30.1-6.7-70-16.3-9.9-2.4-20 2.6-24.3 11.8l-75 163.3c-18.3 39.9-61.6 62.1-104.7 53.7l-232.1-45.3c-43.5-8.5-81.4-33.8-106-69.7-7.8 23-19.7 74.9 21.2 96.6z"/><path class="c" d="m1802 3371.5c9.5 0.2 17.2 0 22.9-0.8-5.4 0.2-12.8 0.5-22.9 0.8z"/><path class="c" d="m1295.8 3157.4c-6.7 25.2-9.4 56.2 5 82.3-8-22.2-9.6-62.5-5-82.3z"/><path class="c" d="m1302.2 3242.2q1.6 2.8 3.6 5.5c12.1 16.7 58.6 35.6 119.3 53.6-54.2-19.7-112.4-44.5-122.9-59.1z"/><path class="a" d="m1337.2 3132c0 0-36.4 79.7 16.9 108 58.2 30.9 427.3 112.8 466.4 92.8 39.1-20 110.2-252 110.2-252 0 0 22.5-21.3 14.3-34.9 0 0-63.5-14-128.4-30.9l14.9-34.3c0 0 150.5 23.6 154.2 29.9 3.6 6.4 4.5 54.7 4.5 54.7 0 0-21.8 44-28.2 52.3-6.4 8.4-15.2 38.8-20.8 55.4-5.5 16.7-19.2 92.5-30.2 110.7-10.9 18.2-21.1 50.2-36.4 57.3-15.2 7.1-20.1 18.5-34.4 24.1-14.3 5.5 24.4 4.3-41.1 6.5-65.5 2.2-244.8-34.2-282.1-41.5-37.4-7.3-207.6-66.4-216.2-90.4-8.6-23.9-9.9-68.9-3.9-86.5 6-17.6 18-43.4 18-43.4z"/><path fill-rule="evenodd" class="b" d="m1808.8 3389.4c-54.3 0-165.1-17.9-258.5-38.2-103.7-22.6-232.8-57-258.9-93-46-63.3 5.9-153.6 8.1-157.4l0.8-1.3 1-1.2c2-2.4 49.5-56.3 181.2-44.8 0.3-33.4 4-102.8 26.4-173.6-5-9-13.6-27.4-2.1-54.2 8.1-19 29.1-26.5 40.2-28 3.3-0.4 6.8-0.4 10.2 0.1l24.4 3.1 4.5 5.8c120.2 154.7 395 192.2 397.8 192.6l12.1 1.6 2.9 11.8c13.8 55.1-7.6 83.1-19.3 93.7-4.7 17.7-19.8 72.6-41.4 129.2-49.2 129.3-86.1 149-109.5 152.6-5.3 0.8-12 1.2-19.9 1.2zm-479.4-268.8c-6.2 11.4-38.5 76.1-9.1 116.6 11.3 15.7 90.5 47.1 237.6 79.1 117.1 25.4 233.6 41.5 265.3 36.6 36.6-5.6 92.5-139.9 123.3-261.1l2-7.9 6.3-3.1c0.4-0.3 17.2-12 11.8-48-57.2-9.3-287.2-54.6-404-198.3l-10-1.3q-0.6-0.1-1.1 0c-3.7 0.4-10.6 3.6-11.9 6.5-5.3 12.6-2.1 18.4 1.4 24.5 2.5 4.4 6.7 11.9 3.7 20.9-28 84.6-26.9 168.8-26.4 184.9 0.2 5.9-2.2 11.6-6.6 15.6-4.4 4-10.4 5.9-16.3 5.2-113.4-14.2-158.9 23.1-166 29.8z"/><path class="a" d="m2144 2154.2l83.8 94.5c9.4 10.6 14.5 24.3 14 38.4-1 33.1-14.3 100.8-83.4 213-15.1 24.6-42.6 38.8-71.4 37.4-38.6-2.1-92.2-5.8-123.2-12-52.3-10.4 53.2-204.7 51.2-208.8-2-4.1 129-162.5 129-162.5z"/><path class="a" d="m1493.3 1798.4c0 0 7.3-67.4-62.8-74.7 0 0-88.2-96.4-119.5-197.5-2.7-9-0.5-18.7 5.7-25.8 20.5-23.5 61.1-82.5 6.4-134.4-62.3-59.1-104.5 51.8-113.1 77-0.8 2.5-3.7 3.5-5.8 2-30-20.3-209.8-134.7-280.6-9.8-77.4 136.5 146.5 319.5 146.5 319.5 0 0 98.3 194.7 184.7 278.5 0 0 9 47.9 66 40.3 56.9-7.6 151.6-140.5 172.5-275.1z"/><g style="opacity:.3"><path class="b" d="m1139.6 1513.5c0 0-108.5-31.1-53.8-125.9l73.8 30.8c0 0 42 29 27.6 39.8-14.5 10.7-47.6 55.3-47.6 55.3z"/></g><path class="d" d="m1177.5 1448c0 0-64.9-30.3-130.4-32.4-65.5-2 26-25.2 28-25.2 2 0 81.9 20.2 102.4 57.6z"/><g style="opacity:.3"><path class="b" d="m1100.5 1736.5c51.3 130.1 181.4 278.5 181.4 278.5 0 0 0.2 19.6 19.1 22.5 16.8 2.6 45.8-20.2 66.4-38.9 7.3-6.7 6.1-18.5-2.4-23.7-137.5-83.9-124.7-190.9-208-249.4-60.1-42.1-123.7-65.4-173-112.8 51.8 80.2 116.5 123.8 116.5 123.8z"/></g><path class="c" d="m919.9 1525.3h5.7q-2.5-6.2-4.8-12.7c-5.8-16.7-10.1-23.9-13.2-23.8-3.7 56.6 28.5 115.8 65.3 164-44.8-68.1-53-127.5-53-127.5z"/><path class="c" d="m1391.1 2015c0 0-43.2 42.5-75.9 58.9 1.8-0.1 3.6-0.1 5.6-0.4 25.5-3.4 58.6-32 89.2-74.6-2-0.9-3.9-1.9-5.9-2.8z"/><path class="c" d="m1254.8 2033.2l-184.7-278.5c0 0 98.3 194.7 184.7 278.5z"/><path class="c" d="m1254.8 2033.2c0 0 4.4 23 26.1 34.6-15.7-12.9-26.1-34.6-26.1-34.6z"/><path fill-rule="evenodd" class="b" d="m1308.9 2092.2c-43.6 0-63.9-29.2-70.1-49.8-81.4-81.3-169.3-249.7-183-276.4-28.1-23.7-227.4-199-147.8-339.6 19-33.4 46.4-54.5 81.5-62.7 76.3-17.9 167.6 30.6 209.8 56.9 12.7-31.6 37.5-78.7 74.8-87.9 14.4-3.6 36.7-2.9 61.3 20.4 45.8 43.4 43.8 102.9-5.3 159-2.2 2.5-2.9 5.8-2 8.9 25.9 83.6 93.8 165.6 111.4 185.9 22.6 3.7 40.4 13.5 53 29.1 22.3 27.4 18.7 62.8 18.6 64.3l-0.2 0.8c-20.8 134.1-115.6 280.5-187.8 290.1q-7.5 1-14.2 1zm-284.1-696.7c-9.3 0-18.4 0.9-27.1 2.9-25.4 6-44.6 20.9-58.6 45.6-69.1 122 140.2 295.1 142.3 296.8l2.9 2.4 1.7 3.4c1 1.9 98 193.1 181.3 273.7l4 4 1.1 5.6c1.1 5 8.5 30.9 46 25.9 44.9-6 136.8-129.7 157.2-259.7 0.7-9.1 1.4-49.6-46.9-54.6l-6.8-0.7-4.6-5c-3.7-4.1-91.2-100.6-123.3-204.3-4.6-14.9-1.2-31 9.2-42.9 25.5-29.1 47.5-71.8 7.6-109.6-15.5-14.7-25-12.4-28.1-11.6-21.2 5.2-43.3 44.6-55.8 81.4-2.2 6.4-7.1 11.4-13.6 13.6-6.5 2.2-13.5 1.2-19.1-2.6-17.4-11.8-99-64.3-169.4-64.3zm468.5 402.8zm0 0h0.1z"/><path class="a" d="m3039.6 2055.9c0 0 2.9-70.8-90-54.5 0 0-202.2 8.1-262.2 297.5 0 0-9.6 64.1 60 52.5l43.7 60.8 151.6-9.5h244.3c0 0 38.3-183-147.4-346.8z"/><g style="opacity:.3"><path class="b" d="m2752.2 2196.5c0 0-81.6 151.8 14.1 116.5l52.8 65.8 57.5-38.5c0 0-41.1-91.9-124.4-143.8z"/></g><path fill-rule="evenodd" class="b" d="m2782.4 2430.7l-43.3-60.3c-22.2 1.6-39.7-3.8-52.2-16.1-21.9-21.6-17.7-54.3-17.2-58l0.2-1c32.3-155.5 105.5-231.9 161.3-268.6 56.9-37.5 107.4-42.5 116.3-43.1 37.1-6.3 65.9-0.8 85.6 16.4 17.6 15.4 22.5 35.8 23.9 47.5 185 167.4 149.1 351 147.5 358.8l-3 14.2h-258.3zm-26.9-98.7l44.4 61.8 142.8-8.9h228.9c4.3-44.6 4.2-185-143.8-315.5l-6.4-5.7 0.4-8.3c0-1-0.1-18.1-12.4-28.6-11.2-9.6-30.8-12.3-56.7-7.8l-2.4 0.3c-7.6 0.3-188.8 12.1-245.3 282.7-0.6 5.3-0.5 19.6 7.1 27 7.5 7.2 21.8 6.6 32.5 4.9z"/><path class="a" d="m2791.1 2412.2c0 0-71 139.3 27.3 152.9 98.3 13.7 11-144.2 162.5-95.3 0 0-21.9 189.5 152.9 184.1 174.7-5.5 140.6-239.1 12.3-302.5-128.3-63.4-288.1-41.6-355 60.8z"/><g style="opacity:.3"><path class="b" d="m2862.8 2521c0 0-35.1-126.3 93.7-129.5 30.4-0.8 59.5 14 76.4 39.2 21.1 31.2 33.7 76.1-32.4 106.9 0 0-12.3-67.6-33.9-76.7-21.7-9.1-83-10-103.8 60.1z"/></g><path fill-rule="evenodd" class="b" d="m3126.5 2671.8c-49.6 0-89-15-117.3-44.6-43.8-45.8-47.8-112.7-47-144.2-22.5-5.9-39.3-6.3-48.9-1-10.9 6.1-14.9 21-19.5 38.3-7.5 28.1-18.9 70.7-77.8 62.5-34.6-4.8-50.8-23-58.3-37.5-26.8-51.3 12.9-132.1 17.5-141.2l1-1.6c70.3-107.6 236.2-137.1 377.8-67.1 80.4 39.8 132.6 146.4 113.8 232.7-13.8 63.6-62.5 101.4-133.4 103.6q-4 0.1-7.9 0.1zm-195-229.3c14.6 0 31.5 3.1 51.4 9.2 9.9 3.1 16.3 12.5 15.5 22.8-1.1 13.8-4.3 85.3 36.6 128 22.5 23.6 55.6 34.8 98.2 33.5 69.3-2.2 92.5-42.2 99.7-75.4 13.6-62.5-22-157.2-94.7-193.2-123.2-60.9-271.7-36.7-331.6 53.8-10.4 20.8-32.6 78.3-17.2 107.7 5.3 10.3 15.7 16.3 31.5 18.5 26.4 3.7 30.2-5.8 38.4-36.3 5.6-20.9 12.5-47 36.7-60.3 10-5.6 21.7-8.3 35.5-8.3zm31.3 29.2q0 0.1 0 0.1 0 0 0-0.1z"/><path class="b" d="m1577.7 2751.8c58.6-74.4 142.6-130.5 235.9-149.2 12.3-2.5 16.9 15.3 4.9 19.1-43 11.3-83.9 30.7-119.6 57.2-31 22.6-59.1 49.9-82.5 80.3-3.4 4.4-6.8 9.1-9.4 13.2-14.1 19.7-43.2-0.6-29.3-20.6z"/><path class="b" d="m1706.8 2667c-2.6 0-5.2-0.5-7.7-1.7-198.6-93.9-123.2-301.4-122.4-303.5 3.5-9.2 13.8-13.9 23-10.4 9.2 3.4 13.9 13.7 10.4 23-2.8 7.5-64.2 178.9 104.3 258.6 8.9 4.2 12.7 14.9 8.5 23.8-3 6.4-9.4 10.2-16.1 10.2z"/><path class="e" d="m916.7 701.3l-56.9 79.8c-4 5.6-10.3 9.1-17.2 9.5l-58.9 3.3c-18.1 1-27.8 21.7-17 36.3l42.5 57.2c3.9 5.2 5.3 11.7 4.1 18l-13.4 67.7c-3.4 16.8 12.4 31.2 28.8 26.2l83.5-25c5-1.5 10.4-1.3 15.2 0.7l101.4 41.6c16.4 6.7 33.9-7.2 31-24.8l-15.1-92.1c-1.2-7.2 1.1-14.5 6.2-19.7l44.1-44.5c13.2-13.4 5.3-36.2-13.4-38.6l-66.7-8.3c-7.1-0.9-13.3-5-16.9-11.2l-43.1-74.3c-8.3-14.3-28.6-15.3-38.2-1.8z"/><g style="opacity:.4"><path class="d" d="m829.4 891.4l-16.7-44.2c-4.1-11.2 4.4-23 16.3-22.4l32.4 1.5c11.6 0.6 22.6-5.4 28.5-15.4l34.3-59.1c4.8-8.1 16.7-7.7 20.8 0.9l22.5 47.1c5.4 11.2 16.9 18.2 29.3 17.8l88.8-2.6c0 0-87.4-25.5-89.2-30.1-1.8-4.5-51.7-93.2-51.7-93.2 0 0-38.9 46.8-46.6 54.1-7.8 7.3-41.4 54.6-41.4 54.6l-83.8 3.6c0 0-0.9 24.2 0 25.5 0.9 1.4 56.5 61.9 56.5 61.9z"/></g><path class="f" d="m1094.4 818.3c0 0-103.5 31.2-108.6 91.6-1 12.4-13.5 20.5-25.5 17.1-37.7-10.9-102.1-15.3-144.6 58.6 0 0-31.2 17.1 30.2 8.6 61.3-8.6 72.5-33.4 103.7-10.1 31.3 23.4 117.4 51.3 109.1 0.9-8.3-50.3-12.8-99.9 11.7-124.7 24.6-24.8 33.9-26.3 24-42z"/><path fill-rule="evenodd" class="b" d="m1037.4 1036.1c-5.2 0-10.4-1-15.4-3l-101.4-41.6c-1-0.4-2.2-0.4-3.3-0.1l-83.5 25c-13.7 4.2-28.3 0.9-38.9-8.8-10.7-9.7-15.4-23.9-12.6-38l13.5-67.7c0.2-1.3-0.1-2.7-0.9-3.8l-42.5-57.3c-8.9-12-10.6-27.8-4.2-41.4 6.3-13.5 19.5-22.5 34.5-23.3l58.9-3.4c1.5-0.1 2.8-0.8 3.7-2l56.9-79.8c8-11.3 21.1-17.6 35-17 13.8 0.7 26.2 8.2 33.2 20.2l43 74.4c0.8 1.3 2.2 2.2 3.7 2.4l66.7 8.3c15.5 2 28.3 12.3 33.3 27 5.1 14.8 1.5 30.8-9.4 41.9l-44.1 44.4c-1.1 1.2-1.6 2.7-1.3 4.3l15.2 92.1c2.3 14.6-3.3 29.2-14.8 38.4-7.3 5.8-16.3 8.8-25.3 8.8zm-118.7-80.6c5.3 0 10.5 1 15.4 3l101.5 41.6c2.1 0.9 3.8 0.1 4.8-0.7 1.1-0.9 2.2-2.3 1.8-4.7l-15.2-92.1c-2.1-12.8 2.1-26 11.2-35.2l44.1-44.5c1.7-1.7 1.5-3.7 1.1-5-0.5-1.3-1.5-2.9-4-3.2l-66.8-8.4c-12.5-1.5-23.7-9-30.1-19.9l-43-74.4c-1.1-1.9-2.8-2.3-4-2.4-1.3-0.1-3 0.3-4.2 2l-56.9 79.8c-7.2 10.1-18.4 16.3-30.8 17l-58.9 3.3c-2.4 0.2-3.6 1.6-4.2 2.8-0.5 1.2-0.9 3.1 0.5 5l42.6 57.3c6.8 9.1 9.4 20.8 7.2 32.1l-13.4 67.7c-0.5 2.2 0.6 3.7 1.5 4.6 0.9 0.8 2.5 1.7 4.7 1l83.5-25c3.8-1.2 7.7-1.7 11.6-1.7z"/><path class="b" d="m1213.1 1465.2c-30.6 9.2-54.1 36-66.3 65.2-8.5 18.7-12.5 41.4-14.8 61.8-2 12.6-20.5 11-20.1-1.8 0.5-31.1 5.5-63.5 19.5-91.5 15-29.8 40.3-56.7 72.4-68.2 22.9-5.4 31.9 27.6 9.3 34.5z"/><path class="b" d="m2579.8 2275.1c-20.1-7.5-47.3-17.9-67.5-24.5q-17.5-5.8-35.2-11.3c0 0-35.6-10.7-35.7-10.8-12.2-3.8-8.2-21.9 4.4-20.4 37.7 4.8 75 11.5 111.7 21.3 9.3 2.6 18.6 5.5 27.7 9.1 3.1 1.3 5.9 2.3 9.6 4.2 8.8 4.3 12.4 15 8.1 23.9-4.3 8.6-14.5 12.2-23.1 8.5z"/><path class="b" d="m2963.2 2467c2.6-13.5 7.8-26.5 13.3-39.2 2.6-5.7 9.3-8.2 15-5.6 3.7 1.7 6.1 5.2 6.5 9 0.9 7 1.2 14 1.4 20.9 0.2 6.9 0.1 13.8-0.9 20.5-4.2 23.6-38.5 18.1-35.3-5.6z"/><path class="g" d="m1228.1 2849.5c0 0 41.2 9.2 62.2 19.6"/><path class="b" d="m1232 2832c22 7.9 42.5 15.6 63 27.8 4.9 3 6.5 9.5 3.4 14.4-2.7 4.4-8.1 6.1-12.8 4.3-9.2-3.1-19.6-5.3-30-7.1-10.3-1.9-21.1-3.4-31.4-4.5-26.3-4.1-17.8-42.4 7.8-34.9z"/><path class="g" d="m1497.6 3073c0 0 20.3-0.5 61.2 14.1"/><path class="b" d="m1497.1 3055.2c23.3 1 45.3 10.9 65.3 21.9 10.2 5.9 4.5 21.8-7 20 0 0-15.4-2.3-15.4-2.3-14.3-2-28.5-3.9-42.8-3.9-23.5-0.7-23.6-34.9-0.1-35.7z"/><path class="d" d="m985.9 2319.4q0 0 0 0c0 3.7-2.7 6.8-6.3 7.5-21.5 4.5-38.4 21.4-42.9 42.9-0.7 3.6-3.8 6.4-7.4 6.4q-0.1 0-0.2 0-0.2 0-0.3 0c-3.6 0-6.7-2.8-7.4-6.4-4.5-21.5-21.4-38.4-42.9-42.9-3.6-0.7-6.3-3.8-6.3-7.5q0 0 0 0 0-0.1 0-0.1c0-3.7 2.7-6.8 6.3-7.5 21.5-4.5 38.4-21.4 42.9-42.9 0.7-3.6 3.8-6.4 7.4-6.4q0.1 0 0.3 0 0.1 0 0.2 0c3.6 0 6.7 2.8 7.4 6.4 4.5 21.5 21.4 38.4 42.9 42.9 3.6 0.7 6.3 3.8 6.3 7.5q0 0 0 0.1z"/><path class="d" d="m2454.3 3335.9q0 0.1 0 0.1c0 3.7-2.7 6.8-6.3 7.5-21.5 4.5-38.4 21.4-42.9 42.9-0.7 3.6-3.8 6.3-7.4 6.4q-0.2 0-0.3 0-0.1 0-0.2 0c-3.6-0.1-6.7-2.8-7.4-6.4-4.5-21.5-21.4-38.4-42.9-42.9-3.6-0.7-6.3-3.8-6.3-7.5q0 0 0-0.1 0 0 0-0.1c0-3.6 2.7-6.7 6.3-7.5 21.5-4.4 38.4-21.3 42.9-42.9 0.7-3.6 3.8-6.3 7.4-6.3q0.1 0 0.2 0 0.1 0 0.3 0c3.6 0 6.7 2.7 7.4 6.3 4.5 21.6 21.4 38.5 42.9 42.9 3.5 0.8 6.3 3.9 6.3 7.5q0 0.1 0 0.1z"/><path class="d" d="m3385.4 1711.6q0 0.1 0 0.1c0 3.7-2.8 6.7-6.4 7.5-21.4 4.4-38.3 21.4-42.8 42.9-0.7 3.6-3.8 6.3-7.5 6.3q-0.1 0-0.2 0-0.1 0-0.2 0c-3.7 0-6.7-2.7-7.5-6.3-4.4-21.5-21.3-38.5-42.8-42.9-3.6-0.8-6.3-3.8-6.3-7.5q0 0 0-0.1 0 0 0-0.1c0-3.7 2.7-6.7 6.3-7.5 21.5-4.4 38.4-21.4 42.8-42.9 0.8-3.6 3.8-6.3 7.5-6.3q0.1 0 0.2 0 0.1 0 0.2 0c3.7 0 6.8 2.7 7.5 6.3 4.5 21.5 21.4 38.5 42.8 42.9 3.6 0.8 6.4 3.8 6.4 7.5q0 0.1 0 0.1z"/><path class="d" d="m2912.6 550q0 0 0 0.1c0 3.6-2.7 6.7-6.3 7.4-21.5 4.5-38.4 21.4-42.9 42.9-0.7 3.6-3.8 6.4-7.4 6.4q-0.1 0-0.3 0-0.1 0-0.2 0c-3.6 0-6.7-2.8-7.4-6.4-4.5-21.5-21.4-38.4-42.9-42.9-3.6-0.7-6.3-3.8-6.3-7.4q0-0.1 0-0.1 0-0.1 0-0.1c0-3.7 2.7-6.8 6.3-7.5 21.5-4.5 38.4-21.4 42.9-42.9 0.7-3.6 3.8-6.4 7.4-6.4q0.1 0 0.2 0 0.2 0 0.3 0c3.6 0 6.7 2.8 7.4 6.4 4.5 21.5 21.4 38.4 42.9 42.9 3.6 0.7 6.3 3.8 6.3 7.5q0 0 0 0.1z"/><path class="d" d="m925.5 3487.2q0 0 0 0c0 3.7-2.7 6.8-6.3 7.5-21.5 4.5-38.4 21.4-42.8 42.9-0.8 3.6-3.8 6.4-7.5 6.4q-0.1 0-0.2 0-0.1 0-0.2 0c-3.7 0-6.8-2.8-7.5-6.4-4.5-21.5-21.4-38.4-42.8-42.9-3.6-0.7-6.4-3.8-6.4-7.5q0 0 0 0 0-0.1 0-0.1c0-3.7 2.8-6.8 6.4-7.5 21.4-4.5 38.3-21.4 42.8-42.9 0.7-3.6 3.8-6.4 7.5-6.4q0.1 0 0.2 0 0.1 0 0.2 0c3.7 0 6.7 2.8 7.5 6.4 4.4 21.5 21.3 38.4 42.8 42.9 3.6 0.7 6.3 3.8 6.3 7.5q0 0 0 0.1z"/><path class="d" d=""/><path class="d" d="m2793.9 3101.5c19.1 0 19.1-29.8 0-29.8-19.2 0-19.2 29.8 0 29.8z"/><path class="d" d=""/><path class="d" d="m1684 3674.9c19.1 0 19.2-29.8 0-29.8-19.2 0-19.2 29.8 0 29.8z"/><path class="d" d=""/><path class="d" d="m746.1 2982.7c19.1 0 19.2-29.7 0-29.7-19.2 0-19.2 29.7 0 29.7z"/><path class="d" d=""/><path class="d" d="m1348.1 1086.5c19.2 0 19.2-29.8 0-29.8-19.1 0-19.2 29.8 0 29.8z"/><path class="d" d=""/><path class="d" d="m3182.9 1147.9c19.2 0 19.2-29.7 0-29.7-19.1 0-19.1 29.7 0 29.7z"/><path class="d" d=""/><path class="d" d="m1991.1 459.9c19.2 0 19.2-29.8 0-29.8-19.1 0-19.2 29.8 0 29.8z"/><path class="d" d=""/><path class="d" d="m647.8 1759.3c15.3 0 15.3-23.8 0-23.8-15.3 0-15.4 23.8 0 23.8z"/><path class="d" d=""/><path class="d" d="m2916.7 2742.2c15.4 0 15.4-23.8 0-23.8-15.3 0-15.3 23.8 0 23.8z"/><path class="d" d="m1609 1371.1c12.5 106.8 52.1 211.2 118.7 302.4 13.6 18.6 28.2 36.6 44 54 7.7 8.5 15.7 16.8 23.9 25 24.9 24.7 51.3 47 79 66.9 23.8 17.2 48.6 32.6 74 46.2 30.7 16.4 62.5 30.2 94.9 41.4q17.8 6.1 35.8 11.3c219.5 62 465 8.6 637.7-160.9 254.4-249.7 254.3-656.6-0.2-909-49-48.6-103.9-88-162.4-117.9-6.8-3.6-13.8-7-20.8-10.2q-28-13.2-56.8-23.6c-44.5-16-90.4-27-136.7-33.2-46.3-6.1-93.2-7.4-139.7-3.7q-22.1 1.7-44.2 5c-22 3.2-43.9 7.6-65.6 13.1-108.1 27.3-210.4 82.5-295.1 165.7-146.4 143.6-208.5 339.2-186.5 527.5z"/><path fill-rule="evenodd" class="b" d="m2259.2 1945.7c-60.3 0-121-8.2-180.6-25.1-12-3.4-24.1-7.2-35.9-11.2-32.9-11.4-64.9-25.4-95.2-41.7-25.9-13.8-50.9-29.4-74.3-46.3-28-20.1-54.6-42.7-79.3-67.1-9-9.1-16.9-17.3-24-25.2-15.5-17-30.4-35.3-44.2-54.2-65.1-89.2-106.3-194.1-119.1-303.5-23.1-197.2 45.1-390.3 187.1-529.6 82.1-80.6 184.6-138.1 296.3-166.3 21.2-5.4 43.4-9.8 65.9-13.1 14.4-2.2 29.4-3.9 44.4-5 46.6-3.7 93.7-2.5 140.1 3.7 46.8 6.2 93 17.4 137.2 33.3 19.3 6.9 38.5 14.9 57.1 23.7 7.5 3.4 14.3 6.8 20.8 10.2 59.8 30.6 114.7 70.4 163.1 118.4 124 123 192 286 191.6 459-0.5 171.7-68.5 332.7-191.5 453.4-123.3 121.1-289.4 186.5-459.5 186.6zm-6.6-1285.5c-17.4 0-34.7 0.7-52 2.1-14.8 1.1-29.7 2.8-44 4.9-22.3 3.3-44.3 7.7-65.4 13.1-110.9 28-212.6 85-294 165-140.9 138.3-208.6 329.8-185.7 525.6 12.7 108.5 53.5 212.6 118.2 301.1 13.7 18.8 28.5 36.9 43.9 53.8 7 7.8 14.8 16 23.8 25 24.4 24.3 50.9 46.7 78.7 66.6 23.2 16.8 48 32.2 73.7 46 30.1 16.1 61.9 30 94.6 41.3 11.6 4 23.6 7.8 35.6 11.2 226.1 63.9 469.5 2.5 635.3-160.3 122-119.8 189.5-279.6 190-449.9 0.4-171.7-67.1-333.5-190.2-455.6-48-47.5-102.5-87.1-161.8-117.4-6.5-3.4-13.3-6.8-20.7-10.2-18.5-8.7-37.6-16.6-56.7-23.5-43.8-15.8-89.7-26.9-136.1-33-28.9-3.9-58.1-5.8-87.2-5.8z"/><g style="opacity:.3"><path class="b" d="m2717 1757.4c-172.6 169.5-418.2 222.9-637.7 160.8q-18-5.1-35.7-11.2c-32.5-11.2-64.3-25-95-41.4-25.4-13.6-50.2-29-74-46.2-27.7-19.9-54.1-42.1-79-66.9-8.2-8.2-16.2-16.5-23.9-25-15.8-17.4-30.4-35.4-44-54-66.6-91.2-106.2-195.5-118.7-302.4-6.8-58.6-5.5-118.1 3.9-176.4 14.3 101.7 53.3 200.6 116.8 287.6q20.3 28 44 54.1c7.7 8.4 15.7 16.7 23.9 25 24.9 24.7 51.3 47 79 66.9 23.8 17.2 48.6 32.5 74 46.1 30.7 16.5 62.5 30.3 94.9 41.5q17.8 6.1 35.8 11.2c219.5 62.1 465 8.7 637.7-160.9 100.8-98.9 161.5-222.4 182.5-351.2 27.1 192.8-34.3 395-184.5 542.4z"/></g><path fill-rule="evenodd" class="b" d="m2259.2 1962.1c-61.8 0-124-8.4-185-25.6-12.4-3.6-24.7-7.4-36.8-11.6-33.8-11.7-66.6-26-97.7-42.7-26.5-14.2-52.2-30.1-76.2-47.5-28.6-20.5-55.9-43.7-81.2-68.7-9.3-9.3-17.3-17.8-24.6-25.8-15.9-17.5-31.1-36.2-45.3-55.5-66.8-91.6-109-199.2-122.1-311.4-23.7-202.3 46.3-400.3 191.9-543.2 84.2-82.7 189.2-141.6 303.8-170.5 21.7-5.6 44.4-10.1 67.5-13.5 14.8-2.2 30.1-3.9 45.5-5.2 47.7-3.7 96-2.4 143.6 3.9 47.9 6.3 95.3 17.8 140.6 34.1 19.7 7.1 39.4 15.3 58.5 24.3 7.6 3.5 14.7 7 21.5 10.5 61.1 31.3 117.3 72.1 166.9 121.3 127.2 126.1 197 293.3 196.5 470.8-0.4 176.1-70.2 341.2-196.3 465.1-126.5 124.1-296.7 191.2-471.1 191.2zm-6.6-1285.4q-25.4 0-50.7 2c-14.5 1.1-28.9 2.7-42.9 4.8-21.8 3.2-43.2 7.5-63.7 12.7-108.1 27.3-207.2 82.9-286.6 160.9-137.2 134.6-203.2 321.2-180.9 511.8 12.4 105.7 52.2 207.2 115.2 293.4 13.3 18.3 27.7 36 42.7 52.5 6.9 7.6 14.5 15.6 23.3 24.4 23.8 23.6 49.6 45.4 76.7 64.8 22.6 16.4 46.8 31.5 71.9 44.9 29.3 15.7 60.3 29.2 92.1 40.3 11.4 3.9 23.1 7.5 34.8 10.9 220.4 62.3 457.7 2.4 619.3-156.2 118.8-116.7 184.6-272.3 185-438.2 0.4-167.3-65.4-324.9-185.3-443.9-46.8-46.4-99.9-84.9-157.7-114.5-6.4-3.3-12.9-6.5-20.1-9.8-18.1-8.6-36.7-16.3-55.3-23-42.8-15.4-87.5-26.2-132.8-32.2-28.2-3.8-56.6-5.6-85-5.6z"/><path fill-rule="evenodd" class="b" d="m2259.2 1964c-61.9 0-124.3-8.4-185.6-25.7-12.3-3.5-24.7-7.4-36.8-11.6-33.9-11.7-66.8-26.1-98-42.8-26.6-14.2-52.3-30.3-76.4-47.6-28.7-20.6-56.1-43.9-81.4-69-9.4-9.3-17.4-17.8-24.7-25.9-15.9-17.5-31.2-36.2-45.4-55.6-67-91.8-109.4-199.8-122.5-312.2-23.8-203 46.4-401.6 192.5-544.9 84.4-82.9 189.7-142 304.6-171 21.8-5.5 44.6-10.1 67.7-13.5 14.9-2.2 30.2-3.9 45.6-5.1 47.9-3.8 96.4-2.5 144 3.8 48.1 6.4 95.6 17.9 141 34.2 19.8 7.2 39.6 15.3 58.7 24.3 7.6 3.6 14.7 7.1 21.5 10.6 61.3 31.4 117.7 72.3 167.5 121.6 127.5 126.5 197.5 294.2 197 472.2-0.4 176.6-70.4 342.2-196.9 466.4-126.8 124.5-297.5 191.8-472.4 191.8zm-6.6-1285.4c-16.9 0-33.7 0.6-50.5 2-14.5 1.1-28.9 2.7-42.8 4.8-21.7 3.2-43.1 7.5-63.5 12.7-107.8 27.2-206.6 82.6-285.8 160.3-136.8 134.3-202.5 320.3-180.3 510.3 12.3 105.4 52 206.5 114.8 292.5 13.3 18.2 27.7 35.8 42.6 52.3 6.9 7.6 14.5 15.6 23.3 24.3 23.7 23.5 49.4 45.3 76.4 64.7 22.6 16.3 46.7 31.3 71.7 44.7 29.2 15.7 60.1 29.2 91.9 40.2 11.3 3.9 23 7.5 34.6 10.8 219.7 62.1 456.3 2.5 617.4-155.7 118.6-116.3 184.1-271.5 184.5-436.8 0.4-166.8-65.2-323.9-184.7-442.5-46.7-46.3-99.6-84.7-157.3-114.2-6.4-3.3-12.9-6.5-20-9.8-18.1-8.5-36.6-16.2-55.2-22.9-42.6-15.3-87.2-26.1-132.3-32.1-28.1-3.8-56.5-5.6-84.8-5.6z"/><path class="b" d="m1649.3 1531.2c254.9 385.8 807.6 405.4 1004.4-5 134-279.2-40.5-625.6-321.3-736.8-204.3-80.9-439.2-72-651.5 205.9 0 0-74.6 137.4-74 249.1 0.6 111.6 20.3 220.3 20.3 220.3z"/><path class="h" d="m2653.7 1526.2c-196.8 410.4-749.5 390.8-1004.4 5l-4.5-13.5c361.9 224.9 843.9 151 1050.8-260.2 11.4 90-0.6 182.6-41.9 268.7z"/><path fill-rule="evenodd" class="b" d="m2182.1 1914.5c-107 0-216.2-25.8-316.9-76.5l-1.4-0.7-1.3-1c-28.8-20.6-56.2-43.9-81.5-69-9.4-9.3-17.4-17.8-24.7-25.9-15.9-17.5-31.2-36.2-45.4-55.6-67-91.8-109.4-199.8-122.5-312.2-23.8-203 46.4-401.6 192.5-544.9 84.4-82.9 189.7-142 304.6-171l2.1-0.5 2.2-0.1c86.4-3.7 178.2 13.4 272.5 50.8 169.8 67.3 312.4 212.8 381.5 389.2 62.3 159 59 325-9.3 467.4-74.3 154.8-195.2 264.5-349.8 317.1-64.6 22-133.1 32.9-202.6 32.9zm-296.7-113c155.7 78.1 332.7 92.9 485.9 40.7 143.7-48.9 256.3-151.2 325.7-295.7 63.2-131.9 66.1-286.1 8.1-434.2-65-165.9-198.9-302.6-358.2-365.7-88-34.9-173.2-51-253.3-48-106.9 27.4-204.9 82.6-283.6 159.8-136.8 134.3-202.5 320.3-180.3 510.3 12.3 105.4 52 206.5 114.8 292.5 13.3 18.2 27.7 35.8 42.6 52.3 6.9 7.6 14.5 15.6 23.3 24.3 23.3 23.2 48.6 44.6 75 63.7z"/><path fill-rule="evenodd" class="b" d="m2177.9 1835c-209 0-411.2-112.3-535-299.6l-0.5-0.8-22.7-68.6c-0.2-1.1-19.8-110.5-20.4-221.6-0.6-112.3 71.9-247 75-252.7l0.6-1c182.9-239.4 405-309.5 660.3-208.4 148.4 58.8 273 185.9 333.4 340.1 54.3 138.7 51.4 283.2-8 407.1-86.3 179.9-247.7 290.7-442.9 304.1q-19.9 1.4-39.8 1.4zm-521.7-307.1c128.7 194.1 343.4 305.4 560.5 290.5 189.6-13 346.4-120.6 430.2-295.4 57.6-120.1 60.2-260.4 7.5-395-58.9-150.4-180.3-274.3-324.8-331.5-248-98.3-464.1-30-642.2 202.9-4.9 9.2-73.4 139.9-72.9 244.9 0.6 105.8 18.6 210.2 20 218.5z"/><path class="d" d="m2932.6 1607.6c-40.5 120.2-146.4 196.9-236.7 171.4-90.2-25.5-130.5-143.5-90.1-263.6 0.3-0.8 0.6-1.6 0.8-2.3 41-118.8 146.3-194.4 235.9-169.1 69.7 19.7 109.6 94.6 105.5 183-1.2 26.1-6.2 53.3-15.4 80.6z"/><g style="opacity:.3"><path class="b" d="m2932.6 1607.6c-40.5 120.2-146.4 196.9-236.7 171.4-90.2-25.5-130.5-143.5-90.1-263.6 0.3-0.8 0.6-1.6 0.8-2.3 5.8 15.1 17.2 31.6 39.5 33.4 39 3.2 130.8-55.5 130.8-55.5 0 0 74.3 15.2 171.1 36-1.2 26.1-6.2 53.3-15.4 80.6z"/></g><path fill-rule="evenodd" class="b" d="m2731 1804.6c-13.7 0-27.4-1.8-40.7-5.6-40.9-11.5-73.9-39.3-95.5-80.2-30.8-58.5-34-135-8.7-210.1 43.9-130.3 161.4-213.1 262-184.7 40.9 11.5 73.9 39.3 95.5 80.2 30.8 58.5 34 135 8.7 210.1-38.1 113-131.5 190.3-221.3 190.3zm75.4-444.7c-71.9 0-148.5 66.2-180.8 162.1-21.4 63.4-19.1 129.7 6 177.3 16.2 30.7 40.4 51.3 70 59.7 79.6 22.4 174.3-48.4 211.3-158 21.3-63.4 19-129.7-6.1-177.3-16.2-30.7-40.4-51.3-70-59.7-9.9-2.8-20.1-4.1-30.4-4.1zm126.2 247.7z"/><path class="d" d="m2914 1698.8c-59.5 79.1-152.1 97.6-206.8 41.3-54.7-56.3-50.8-166 8.6-245.1 59.5-79.2 152-97.6 206.7-41.3 54.8 56.3 50.9 166-8.5 245.1z"/><path fill-rule="evenodd" class="b" d="m2784.6 1775.3c-30.2 0-58.1-11.7-79.2-33.4-55.5-57.1-51.7-168.5 8.4-248.5 33.5-44.6 78.6-71.8 123.8-74.6 33.1-2.1 64 9.6 86.8 33.1 55.4 57 51.7 168.5-8.4 248.5-33.5 44.5-78.6 71.8-123.8 74.6q-3.8 0.3-7.6 0.3zm60.8-351.7q-3.7 0-7.5 0.3c-43.7 2.7-87.4 29.2-120.1 72.6-58.6 78-62.5 186.5-8.7 241.8 22 22.7 50.7 33.7 82.8 31.6 43.6-2.7 87.4-29.2 120-72.6 58.7-78 62.6-186.5 8.8-241.9-20.3-20.9-46.2-31.8-75.3-31.8z"/><g style="opacity:.3"><path class="b" d="m2666.5 1628.9c2.6-34.4 14.8-68.2 33.4-97.6 0.8 79.1 56.5 129.8 130.1 115 47.5-9.6 91.6-44.3 120.3-89.8 0.1 5-0.1 10.1-0.5 15.4-6.6 87.7-75.4 171.6-153.7 187.3-78.2 15.8-136.2-42.6-129.6-130.3z"/></g><path fill-rule="evenodd" class="b" d="m2781.6 1793.8c-10.3 0-20.5-1.3-30.5-4-30.7-8.4-55.7-29.3-72.1-60.4-25.1-47.3-27-113.6-5.3-177.4 37.5-109.7 129.4-178.5 209.3-156.5 30.8 8.4 55.7 29.2 72.2 60.3 25 47.3 27 113.6 5.2 177.4-32.7 96-107.2 160.6-178.8 160.6zm71.6-360.7c-53.1 0-113.9 55.6-140.1 132.4-18.1 53.1-17.1 107.1 2.7 144.4 7.6 14.4 21.8 33 46.3 39.7 56.8 15.6 129.6-43.9 158.9-129.8 18.2-53.1 17.2-107.2-2.6-144.5-7.6-14.4-21.9-33-46.4-39.7-6.1-1.7-12.4-2.5-18.8-2.5z"/><g style="opacity:.5"><path class="d" d="m2411.4 976c0 0-264.5-85.9-465.1 4.1q-0.3 0.1-0.6 0.2c-42.3 19-78.4 49-105 86.4-35.2 49.6-52 88.9-65.5 124-40.9 106.9-39.8 164.7-39.8 164.7-40.1-79.8-50.4-157.1-17.2-246.4q5-13.3 11.2-26.9 1.4-3.1 2.9-6.2-0.1 0 0.1-0.1c9.6-17.8 23.2-40.7 40.8-65.2 52.8-74.1 141.1-163.4 264.8-173.6 231.3-19.2 386.6 131.3 373.4 139z"/></g><g style="opacity:.5"><path class="d" d="m2375.3 1320.6c-5.5 55 28.8 103.6 76.6 108.6 47.9 4.9 91.2-35.7 96.7-90.7 5.5-55-28.8-103.5-76.6-108.5-47.9-4.9-91.2 35.6-96.7 90.6z"/></g><g style="opacity:.5"><path class="d" d="m2407.8 1509.8c-0.3 22.8 15.5 41.6 35.3 42 19.9 0.4 36.3-17.8 36.6-40.6 0.3-22.8-15.5-41.7-35.4-42-19.8-0.4-36.2 17.8-36.5 40.6z"/></g><path class="d" d="m2572.8 2437.4c0 0 23.1 42 6.9 85.1-18.8 49.8-57.8 56.9-57.8 56.9 0 0-163.3 12.7-359.9-123.2 0 0-30-106.7 59.7-122.5 0 0 214.6 126.4 351.1 103.7z"/><path class="d" d="m1610.9 2119.6c-15.5 40 4.4 84.9 44.3 100.4 40 15.5 84.9-4.4 100.4-44.3 15.5-40-4.3-84.9-44.3-100.4-39.9-15.5-84.9 4.4-100.4 44.3z"/><g style="opacity:.3"><path class="b" d="m1610.9 2119.6c-15.4 40 4.4 84.9 44.3 100.4 40 15.5 85-4.4 100.5-44.3 4.2-11.1 5.8-22.5 5-33.7-21.1 20-52.6 27.3-81.5 16.1-28.8-11.2-47.2-37.8-49.3-66.7-8.1 7.6-14.7 17.2-19 28.2z"/></g><path fill-rule="evenodd" class="b" d="m1683.3 2242c-11.5 0-23-2.1-34.1-6.4-48.5-18.8-72.7-73.5-53.9-122 18.8-48.5 73.5-72.7 122.1-53.9 23.5 9.1 42 26.8 52.2 49.8 10.2 23.1 10.8 48.7 1.7 72.2-9.2 23.5-26.9 42.1-49.9 52.3-12.2 5.3-25.1 8-38.1 8zm-56.7-116.3c-12.2 31.2 3.4 66.6 34.7 78.7 15.2 5.8 31.7 5.5 46.5-1.1 14.9-6.6 26.3-18.5 32.2-33.7 5.9-15.1 5.5-31.7-1.1-46.5-6.5-14.9-18.5-26.3-33.6-32.2-31.3-12.1-66.6 3.5-78.7 34.8z"/><path class="d" d="m1671.1 2365.5l365.8 175.4c43.3 20.8 95.8 2.3 116.6-41l93.3-194.7c18.2-38 6.3-82.9-26.1-107.4-4.5-3.5-9.5-6.6-14.9-9.2l-365.8-175.3c-43.4-20.8-95.8-2.4-116.6 41l-73.9 154.2-19.4 40.5c-20.8 43.3-2.3 95.8 41 116.5z"/><path class="d" d="m1671.1 2365.5l365.8 175.4c43.3 20.8 95.8 2.3 116.6-41l93.3-194.7c18.2-38 6.3-82.9-26.1-107.4-4.5-3.5-9.5-6.6-14.9-9.2l-365.8-175.3c-43.4-20.8-95.8-2.4-116.6 41l-73.9 154.2-19.4 40.5c-20.8 43.3-2.3 95.8 41 116.5z"/><path class="d" d="m1671.1 2365.5l365.8 175.4c43.3 20.8 95.8 2.3 116.6-41l93.3-194.7c18.2-38 6.3-82.9-26.1-107.4-4.5-3.5-9.5-6.6-14.9-9.2l-365.8-175.3c-43.4-20.8-95.8-2.4-116.6 41l-73.9 154.2-19.4 40.5c-20.8 43.3-2.3 95.8 41 116.5z"/><g style="opacity:.3"><path class="b" d="m1670.5 2365.3l365.9 175.4c43.3 20.7 95.7 2.3 116.5-41l93.3-194.7c18.2-38 6.3-82.9-26-107.4-27.4 3.8-44.8 6.3-44.8 6.3-92.7 147.7-174.6 204.3-370.2 114.5-84.4-38.8-131.1-77-156.3-110.1l-19.4 40.5c-20.8 43.3-2.3 95.7 41 116.5z"/></g><path fill-rule="evenodd" class="b" d="m2074.4 2566.2c-15.3 0-30.5-3.4-44.7-10.2l-365.9-175.4c-51.7-24.8-73.7-87.1-48.9-138.9l93.4-194.6c12-25 33-43.9 59.3-53.2 26.3-9.2 54.6-7.7 79.6 4.3l365.8 175.3c6.6 3.2 12.6 6.9 18 11 39.1 29.7 52.2 83.6 30.9 127.9l-93.3 194.7c-12 25-33.1 43.9-59.4 53.1-11.4 4.1-23.1 6-34.8 6zm-396.1-215.8l365.9 175.4c16.9 8.1 36 9.1 53.9 2.8 17.8-6.3 32.1-19 40.3-36l93.3-194.7c14.4-30 5.5-66.6-21.1-86.8q-5.4-4.2-12.1-7.4l-365.8-175.3c-16.9-8.1-36.1-9.1-54-2.8-17.8 6.2-32.1 19-40.1 35.9l-93.4 194.7c-16.9 35.1-2 77.4 33.1 94.2z"/><path class="d" d="m1801.1 2426.2l0.1 1.7 235.7 113c31.8 15.2 68.4 9.4 93.9-11.9 9.3-7.7 17.1-17.5 22.6-29.1l41.5-86.5 13.7-28.5 24-50.2 14.2-29.5c20.7-43.4 2.3-95.8-41-116.5l-79.1-37.9c33.2 24.3 45.5 69.8 27.2 108.1l-27.7 57.8-22.8 47.4-42.9 89.6c-20.8 43.2-73.2 61.7-116.5 41z"/><g style="opacity:.3"><path class="b" d="m1763.8 2408.3l0.1 1.7 273 130.9c31.8 15.2 68.4 9.4 93.9-11.9 9.3-7.7 17.1-17.5 22.6-29.1l41.5-86.5 13.7-28.5 24-50.2c-14.8-9.8-36.9-17.6-59.5 0.3-31.5 24.9-43.1 6-46.9-18.3l-22.8 47.4-42.9 89.6c-20.8 43.2-73.2 61.7-116.5 41z"/></g><path fill-rule="evenodd" class="b" d="m2074.4 2566.3c-15.3 0-30.6-3.5-44.7-10.3l-331.2-158.7 0.1-0.4c-7.8-4.8-13.2-11.1-8.1-21.9l7.1-15.2 15.3 7.2c4.7 2.2 238.2 112.5 238.2 112.5 17 8.1 36.2 9.1 54 2.9 17.9-6.3 32.2-19.1 40.3-36l93.3-194.7c14.7-30.6 5.4-67.3-21.9-87.4l17.2-28.7 79 37.9c51.8 24.9 73.7 87.2 48.9 138.9l-93.3 194.7c-12 25-33.1 43.9-59.4 53.2-11.4 4-23.1 6-34.8 6zm-56.3-53l26.1 12.5c16.9 8.1 36 9.1 53.9 2.8 17.8-6.2 32.1-19 40.2-35.9v-0.1l93.4-194.7c16.8-35.1 1.9-77.3-33.2-94.2l-23.4-11.2c6.8 23.8 5.2 50-6.2 73.6l-93.3 194.8c-11.7 24.4-32 42.9-57.5 52.4z"/><path class="i" d="m1962.2 2288.7c-3.4 7.2-20.8 70.3-20.8 70.3 0 0 18.4 8.7 41.1 19.4 28.3 13.4 65.1-5.1 82.2-41.3 17.1-36.1 8-76.3-20.3-89.7-19.1-9-41.2-19.4-41.2-19.4 0 0-35.5 48.9-41 60.7z"/><path class="j" d="m1962.2 2288.7c-3.4 7.2-20.8 70.3-20.8 70.3 0 0 18.4 8.7 41.1 19.4 28.3 13.4 65.1-5.1 82.2-41.3 17.1-36.1 8-76.3-20.3-89.7-19.1-9-41.2-19.4-41.2-19.4 0 0-35.5 48.9-41 60.7z"/><path fill-rule="evenodd" class="b" d="m2001.9 2399.5c-9.1 0-18.1-1.9-26.6-5.9l-28.5-13.5c-14.7-7-22.2-23.4-17.8-39 14.6-52.4 17-57.4 18-59.6 1.3-2.6 5.1-10.8 34.6-52.1 9.3-13.1 26.7-17.6 41.2-10.7l28.7 13.6c18.5 8.7 31.4 25.6 36.4 47.7 4.7 20.6 1.8 43.4-8 64.3-16.2 34.2-47.6 55.2-78 55.2zm-24.5-103.8c-1.3 3.1-6.3 19.1-16.2 54.4l28.5 13.2c19.6 9.2 47-6 59.9-33.3 6.6-14.2 8.7-29.3 5.6-42.6-2.6-11.8-9-20.6-18-24.8l-28.7-13.6c-19.9 28.3-29.2 42.7-31.1 46.7z"/><path class="i" d="m1921 2269.3c-17.1 36.1-7.9 76.3 20.4 89.7 28.3 13.4 65.1-5.1 82.2-41.3 17.1-36.2 8-76.3-20.4-89.7-28.3-13.4-65.1 5.1-82.2 41.3z"/><g style="opacity:.7"><path class="d" d="m2023.6 2317.7q-2 4.1-4.2 7.8c8.1-31.2-2-62.1-26.2-73.6-26.2-12.4-59.6 2.6-78 33.5 1.3-5.4 3.3-10.8 5.8-16.2 17.1-36.1 53.9-54.6 82.2-41.2 28.4 13.3 37.5 53.5 20.4 89.7z"/></g><path class="j" d="m2023.6 2317.7c-17.1 36.2-53.9 54.7-82.2 41.3-28.4-13.4-37.5-53.6-20.4-89.8 2.7-5.7 5.9-10.9 9.5-15.7-4.1 27.9 6.4 54 28.1 64.2 23.8 11.3 53.7 0 72.7-25.5-1.2 8.5-3.8 17.1-7.7 25.5z"/><path fill-rule="evenodd" class="b" d="m1960.8 2380c-9.1 0-18.1-1.9-26.6-5.9-18.4-8.7-31.4-25.6-36.4-47.7-4.6-20.6-1.8-43.4 8.1-64.3 21-44.5 67.9-66.6 104.5-49.3 36.6 17.3 49.4 67.6 28.3 112.1-16.1 34.2-47.6 55.1-77.9 55.1zm22.9-139.6c-17.5 0-37.2 14.2-47.5 36-6.7 14.1-8.7 29.2-5.7 42.6 2.7 11.8 9.1 20.6 18 24.8 19.6 9.3 47-6 59.9-33.3 12.9-27.2 7.3-58.1-12.3-67.4-3.9-1.8-8.1-2.7-12.4-2.7zm-62.7 28.9h0.1z"/><path class="b" d="m1785.5 2435.4c-2.3 0-4.7-0.5-6.9-1.5-8.4-3.8-12.2-13.7-8.4-22.1l44.9-99.6c8.1-18.1 6.7-38.8-3.9-55.5-16.9-26.9-18.9-60-5.3-88.7l66.1-139.1c4-8.4 14-12 22.4-8 8.3 4 11.9 14 7.9 22.3l-66.1 139.1c-8.7 18.3-7.4 39.4 3.4 56.5 16.5 26.3 18.8 58.8 6 87.1l-44.8 99.6c-2.8 6.2-8.9 9.9-15.3 9.9z"/><path class="d" d="m2572.8 2437.4c0 0 23.1 42 6.9 85.1-18.8 49.8-57.8 56.9-57.8 56.9 0 0-163.3 12.7-359.9-123.2 0 0-30-106.7 59.7-122.5 0 0 214.6 126.4 351.1 103.7z"/><path fill-rule="evenodd" class="b" d="m2509.3 2596.5c-44.4 0-188.2-10-356.8-126.5l-5-3.4-1.6-5.8c-0.7-2.5-16.8-61.4 10-104 13.4-21.3 34.6-34.6 62.9-39.6l6.1-1.1 5.3 3.2c2.1 1.2 211 123 339.8 101.5l11.8-1.9 5.7 10.4c1.1 2 26.6 49.3 7.9 99.1-21.9 58.1-68.6 67.2-70.5 67.5l-1.7 0.2c-1.1 0.1-5.9 0.4-13.9 0.4zm-332.4-150.4c179.1 121.6 328.7 117.4 342.6 116.7 4.6-1.2 30.7-9.5 44.5-46.2 8.9-23.7 3.1-47.8-1.6-60.9-129.2 13-308.8-84.6-343.6-104.3-15.7 3.9-27 11.5-34.4 23.1-15.1 23.8-10.2 58.2-7.5 71.6z"/><g style="opacity:.3"><path class="b" d="m2579.6 2522.5c-18.7 49.8-57.7 56.9-57.7 56.9 0 0-163.2 12.7-359.9-123.2 0 0-9.8-35.2-1.3-68 0.4 1.9 0.7 3 0.7 3 143.7 99.3 269.6 119.2 326.9 122.8 39.8 2.4 76.3-19.4 90.2-55q0.3-0.8 0.5-1.5c0.4-0.9 0.7-1.7 0.9-2.5 5 16.2 9.5 41.7-0.3 67.5z"/></g></svg>