<svg version="1.2" xmlns="http://www.w3.org/2000/svg" viewBox="0 0 4000 4000" width="400" height="400"><style>.a{fill:#d9d3e0}.b{fill:#fff}.c{fill:#090909}.d{fill:#371a45}.e{display:none;fill:#371a45}.f{fill:#b77aed}.g{fill:#78aeef}.h{fill:#111a28}.i{fill:#c0b9c6}</style><path class="a" d="m1337.4 3530.3l-69 6.5-276-2941.5c-1.6-17.9-11.1-33.9-25.3-44.7-21.3-16.3-34.1-43.1-30.4-72.7 4.3-35.7 33.3-64.4 69-68.5 47.7-5.5 88.2 31.8 88.2 78.4 0 19.8-7.3 37.8-19.2 51.7-10.7 12.3-15.2 28.9-13.7 45.1z"/><path class="b" d="m3298.1 2067.3c-54.4-32.4-127-39.8-191.4-28.3-10.6 1.9-20.9 4.3-30.9 7.2-13.2 3.8-25.8 8.5-37.6 13.9-75.1 34.6-225.9-52-359.1-52-17.3 0-45.6 0-82.1-0.2-130.1-0.5-364.4-2.7-579.3-12.5-188.3-8.8-361.7-23.3-436.7-47.5-84.4-27.2-172.6-21.4-243.6-7.1-5.6 1.1-11.1 2.3-16.6 3.5v0.1c-74.1 16.8-125.9 41.5-128.1 42.6q-0.1 0-0.1 0c0 0-12.5 33.2-68.1 15.9l-132-1407.6c0 0 5.4-35.9 68.3-18.7q7.5-8.2 15.6-15.6c52.4-48.9 119.5-75.4 198.8-83.2 59.5-5.9 126-1.4 198.3 12.1 117 21.7 249.4 66.7 392.3 127.9 111 52 225 82.4 342.2 89.2 103.4 6 209.4-6.6 318.1-39.2 0 0 62.7-21.5 168.7-4.9 0.6 0.1 1.7 0.2 3 0.5 44 7 95.4 20.7 152.7 45 33.5 14.3 63.6 23.6 90.7 30 15.8 3.7 30.6 6.4 44.4 8.4 0 0 0.1 0 0.3 0 101.1 14.8 147.1-6.8 157.7 81.7 14.4 121.3 53.4 662 128.5 797.4 75.1 135.3 56.3 291.3 103.9 377.9 47.7 86.6-2.9 108.3-77.9 63.5z"/><path class="c" d="m1904.2 1461h-87.3v-386.5h87.3zm-131.4-299.3h-296.6v-87.3h296.6zm0 189.5h-167.8v-86.9h167.8zm-209.3 109.8h-87.3v-255.2h87.3zm823.1-299.2h-297v-87.3h297zm-0.4 299.2h-87.3v-149.8h-123.8v-86.9h211.1zm-340.7-131.4h-87.3v-255.1h87.3zm209.2 131.4h-296.5v-86.8h296.5zm570.2-299.3h-252.9v-87.3h252.9zm0 299.3h-87.3v-255.2h87.3zm-296.6-131.4h-87.2v-255.1h87.2zm165.2 131.4h-252.9v-86.9h252.9zm272.2-113.8h-86.8v-273.2h86.8zm0 113.9h-86.8v-87.8h86.8z"/><path fill-rule="evenodd" class="d" d="m1268.4 3554.1c-8.9 0-16.4-6.7-17.2-15.7l-276-2941.5c-1.2-12.6-8-24.4-18.6-32.6-27.5-20.9-41.3-54-37.1-88.5 5.2-43.5 40.7-78.6 84.2-83.6 27.4-3.1 54.9 5.5 75.3 23.7 20.5 18.3 32.2 44.5 32.2 71.9 0 23.2-8.3 45.5-23.4 63-7.2 8.3-10.6 20-9.5 32.2l276.4 2945.7c0.4 4.6-1 9.2-3.9 12.7-3 3.5-7.2 5.8-11.8 6.2l-69 6.4q-0.8 0.1-1.6 0.1zm-253.4-3127.9q-3.6 0-7.3 0.4c-27.8 3.2-50.5 25.6-53.9 53.4-2.6 22.1 6.2 43.4 23.8 56.8 18.3 14 30 34.7 32.1 56.9l274.3 2924.2 34.5-3.2-274.7-2928.5c-2-21.5 4.5-42.7 17.8-58.1 9.6-11.2 15-25.5 15-40.3 0-17.5-7.6-34.3-20.7-46-11.4-10.2-25.7-15.6-40.9-15.6z"/><path fill-rule="evenodd" class="d" d="m3363 2107.4c-20.4 0-45.7-8.5-73.8-25.2-73.8-44-178.5-36.5-243.7-6.4-47.2 21.8-113.1 3.6-189.4-17.4-58.8-16.2-119.6-33-177-33-275 0-933-5.9-1103.5-61-160.2-51.7-338.7 21.8-370.5 35.9-10.4 16-37 34.3-85.8 19.1-6.6-2.1-11.4-8-12.1-14.9l-132-1407.6q-0.2-2.1 0.1-4.2c0.3-1.8 3.2-18 19.9-28.8 14.7-9.6 34.8-11.7 60-6.4 75.4-76.6 186.8-109.2 331.2-97.1 130.5 11 289.5 57.3 486.3 141.4q0.2 0.1 0.5 0.3c210 98.4 427.9 115 647.7 49.2 9.4-3.1 138.2-43 336.4 41.2 82.7 35.1 144.3 39.7 189.3 43.1 60.5 4.5 104.3 7.8 114.2 90.9 2.5 21.3 5.8 55 9.9 97.6 18.2 189.8 56.3 584.7 116.5 693.3 43.3 78.2 56.3 161.8 67.8 235.6 8.9 57.3 16.6 106.7 36.2 142.4 31.5 57.3 21.4 85.6 7.3 99.1-8.9 8.6-21 12.9-35.5 12.9zm-199.5-91.1c52.2 0 103.2 12.2 143.4 36.1 38.5 22.9 61.9 22.7 67.6 17.2 4-3.9 6.4-21-13.6-57.5-22.6-41-31.1-95.8-40.1-153.8-11.1-70.9-23.5-151.3-63.9-224-63.7-115-100.8-500.1-120.7-706.9-4.1-42.4-7.3-75.9-9.8-96.8-6.5-54.8-22.6-56-82.4-60.5-47.4-3.5-112.3-8.3-200.3-45.7-188.4-80-310.8-40.6-312-40.2-0.2 0.1-0.4 0.2-0.6 0.2-228.2 68.4-454.4 51.3-672.4-50.8-193.1-82.6-348.5-128-475.2-138.6-139.8-11.8-241.2 18.8-309.9 93.4-4.4 4.8-11.1 6.7-17.4 5-25.4-7-36.9-3.5-41.5-0.8-2.7 1.5-4 3.3-4.7 4.6l130.6 1391.9c27 5.5 34.6-6 35.9-8.5 1.4-4.5 4.2-7.1 8.5-9.2 8.6-4.2 212-101 401.3-39.9 165.8 53.5 819.4 59.3 1092.8 59.3 62.1 0 128 18.2 186.2 34.2 66.8 18.4 130 35.8 165.6 19.4 40.7-18.8 87.1-28.1 132.6-28.1z"/><g style="opacity:.9"><g style="opacity:.3"></g><g style="opacity:.3"></g><g style="opacity:.7"><path class="b" d="m2223.2 1115.3l134.4 385.9c7.5 21.4-3.8 44.8-25.2 52.2l-25.6 9c21.4-7.5 32.7-30.9 25.2-52.2l-134.4-385.9c0 0-16.1-50.5-65.4-105.1-28.4-31.5-67.8-64.4-121.5-89.6-4.6-2.1-9.4-3.2-14.2-3.5 10.7-9.2 26.2-11.8 39.8-5.4 53.7 25.2 93.2 58.1 121.6 89.6 49.2 54.5 65.3 105 65.3 105z"/></g><g style="opacity:.7"></g><g style="opacity:.3"><path class="d" d="m2237.4 1664.9l-39.5 13.8c-16.1 5.6-32.9-6.4-32.8-23.5l0.3-43.6 39.5-13.8-0.3 43.6c-0.1 17.1 16.7 29.2 32.8 23.5z"/></g><g style="opacity:.7"><path class="b" d="m2335.3 1630.9l-23.8 8.2c16.2-5.6 21.9-25.5 11.1-38.8l-27.3-33.9 23.7-8.3 27.4 33.9c10.7 13.3 5 33.2-11.1 38.9z"/></g></g><path class="d" d="m1168.7 3570.1c10-53.9 68.1-79.3 118.4-68.4 13.6 2 21.3-6.9 33.3-16 7.3-6 16-12.6 26.7-17.6 24.7-12.2 55.1-7.2 76.8 7.2 11.2-2.6 22.3-5.3 35-4.8 47 0.5 64.9 47 65.2 86.8-9-23.8-19.5-50-43.1-60-16.6-6.2-32.8 0.8-48.9 7.2-8.2 3.1-17.5 2.3-25.7-0.8-25-7.5-43.3-11.2-63.5 8.9-15.1 14.8-37.7 31.9-62.2 26.2-42.5-9.8-80.7-2.5-112 31.3z"/><g style="opacity:.2"><path class="e" d="m2911.1 1012.4c11.6 175.2-9.6 306.1-48.1 238.9-38.5-67.2-13.5-133-30.8-352.5-16.2-205.7-113.8-231.6-134.4-235.4 44 7 95.4 20.7 152.7 45 33.5 14.3 63.6 23.6 90.7 30-72 20.5-41.6 98.8-30.1 274z"/></g><g style="opacity:.2"><path class="e" d="m3075.8 2046.2c-13.2 3.8-25.8 8.5-37.6 13.9-75.1 34.6-225.9-52-359.1-52-17.3 0-45.6 0-82.1-0.2-27.1-61.5-14.6-104.4 64.7-87.9 216.5 45.2 261 22.2 261-110.7 0-132.8-63.5-331-15.4-412.5 48.1-81.5 82.8 191.2 96.2 429.9 13.5 238.7 63.6 211.7 72.3 219.5z"/></g><g style="opacity:.2"><path class="d" d="m3298.1 2067.3c-54.4-32.4-127-39.8-191.4-28.3-0.2-67 125.5-73.3 153.8-71.8 37.6 1.9-2.9-110.7 1-174.2 3.8-63.5-15.4-127.1-87.6-239.6-72.2-112.5-63.5-506.8-72.2-645.4-8.4-134.3-109.5-159.7-115.8-161.2 101.1 14.8 147.1-6.8 157.7 81.7 14.4 121.3 53.4 662 128.5 797.4 75.1 135.3 56.3 291.3 103.9 377.9 47.7 86.6-2.9 108.3-77.9 63.5z"/></g><g style="opacity:.2"><path class="d" d="m1862 619.5c-12.9 1.8-29 1.6-48.4-1.2-115.1-16.8-49 95.4-36.1 184.1 12.9 88.7-3.8 200.7-57 177.6-53.2-23.1-22.5-90.7-31.6-251.5-9.1-160.8-156.9-206.1-156.9-206.1l0.2-0.4c52.5 9.8 112 30 176.1 57.4 49.9 23.4 101 37 153.7 40.1z"/></g><g style="opacity:.2"><path class="d" d="m2017.7 1995.4c-188.3-8.8-361.7-23.3-436.7-47.5-84.4-27.2-172.6-21.4-243.6-7.1 0 0 182.7-146.8 332.4-116 149.8 30.7 150.5-134.8 244.1-149.3 81.6-12.7 24.2 205.8 103.8 319.9z"/></g><g style="opacity:.2"><path class="d" d="m1320.8 1944.3v0.1c-47.5 20.2-127.4 51-127.4 51l-0.7-8.4-116.3-1426c52.4-48.9 119.5-75.4 198.8-83.2 0 0-111 49-87.9 220.8 23.1 171.8 53.4 948.6 57.7 1054 4.3 105.4 40.4 190.5 99.6 176.1 22.7-5.5 5.8 3-23.8 15.6z"/></g><g style="opacity:.3"><path class="b" d="m1591.7 1194.5c11.2 172.4-22 314.9-89.6 319.3-67.6 4.3-96.9-134.1-108-306.5-11.2-172.5 0.1-313.5 67.7-317.9 67.6-4.4 118.8 132.7 129.9 305.1z"/></g><g style="opacity:.3"><path class="b" d="m2737.9 1263.8c18.6 171.7 15.5 303.7-51.8 311-67.4 7.3-56.7-139.2-75.4-311-18.6-171.8-59.6-303.7 7.8-311 67.4-7.3 100.7 139.2 119.4 311z"/></g><g style="opacity:.3"><path class="b" d="m1491.1 723.1c0 40.5-20.3 73.3-45.3 73.3-25.1 0-45.4-32.8-45.4-73.3 0-40.5 20.3-73.3 45.4-73.3 25 0 45.3 32.8 45.3 73.3z"/></g><path class="b" d="m2634.6 2599v507.3c0 49.2-34.7 92.1-83.1 101-32.2 5.9-75.7 7.2-133.8-2.1q-7.9-1.2-16.2-2.7l-25.7-677h185.3c40.6 0 73.5 32.9 73.5 73.5z"/><g style="opacity:.3"><path class="d" d="m2634.6 2610.3v496c0 49.2-34.7 92.1-83.1 101-32.2 5.9-75.7 7.2-133.8-2.1-15.2-155.5 14.7-362.7 18.3-365.5 5.6-4.3 65.1 20.2 76.7 29 11.5 8.8 7.2-111.3 16.2-221 8.9-109.8 95.4-41 95.4-41z"/></g><path class="d" d="m2495.9 3229.3c-25 0-52-2.3-81-6.9-5.3-0.9-10.9-1.8-16.6-2.9-9.4-1.8-15.6-10.8-13.8-20.2 1.7-9.4 10.8-15.6 20.2-13.9q8 1.5 15.6 2.7c49.5 7.9 92.6 8.7 128 2.2 40-7.4 69-42.7 69-84v-507.3c0-31-25.2-56.2-56.2-56.2h-185.3c-9.6 0-17.3-7.8-17.3-17.3 0-9.6 7.7-17.4 17.3-17.4h185.3c50.1 0 90.8 40.8 90.8 90.9v507.3c0 58-40.9 107.7-97.3 118.1-18 3.3-37.6 4.9-58.7 4.9z"/><path class="b" d="m2692.7 3022.1c-10.7 104-79 108.8-114.6 103-35.6-5.7-48.1-59.7-48.1-59.7 0 0-45.8-12.4-37.6-51.4 8.2-39 31.8-45.8 31.8-45.8l-85.2-151.6c0 0 11.6 127.1 15.9 262.8 4.3 135.7 40.4 294.5 44.8 360.9 1.9 28.8 2.9 54.6 3.5 74.6 0.7 23.2-17.9 42.4-41.1 42.4h-213.7c-15.1 0-28.7-9.6-33.4-24-19.8-61.4 12.2-112.5 51.5-119.7 0 0-25.3-118.1-38.7-191.3h-95.6l3.8 293.3c0.3 22.9-18.2 41.7-41.2 41.7h-253.2c-14.2 0-27.2-8.6-32.5-21.7q-0.7-1.9-1.4-3.8c-24.5-65.5-12.6-154.1 113-157.9 0 0-20.7-179.5-20.4-360.2v-0.1c0-10.3 0-20.6 0.2-30.9-117 66.7-188.3-1.6-233.9-145.9-36.5 2.2-71.9-23-74.6-60.2-1.5-20.6 7.1-44.9 31.3-70.3l-62.7-60.1c-13.1-12.8-13.5-33.8-0.7-46.8l2.3-2.4c12.9-13.2 34.2-13.2 47.1-0.1l65 66.3-26.7-77c-6-17.3 3.2-36.1 20.5-42.1 3.5-1.2 7.1-1.8 10.6-1.8 13 0 25.3 7.8 30.6 20.4l29.7 71.6c55.9-5.7 69 35.2 52.7 107.7l11.6 30.9c0 0 11.1-102.5 115.3-135l555.1-21.9c0 0 75.4 17.3 133.7 137.6 58.3 120.3 95.8 164.6 85.3 268.5z"/><path class="f" d="m1857.9 2678.1c37.7 43.8 25.4 115.8-46.9 94.7"/><path class="g" d="m2597.2 2733.9c0 0-54.2-18.3-101.9 24.3l43.3 75c0 0 36.1-38.3 96-25.3"/><path class="d" d="m2462 3574.6h-213.6c-22.8 0-42.9-14.5-49.9-36-11.5-35.6-8.3-72.3 8.7-100.7 9.8-16.4 23.5-28.9 39.1-35.9-6.7-31.7-22.3-106.2-32.9-162.3h-63.6l3.5 275.7c0.2 15.7-5.8 30.6-16.8 41.8-11.1 11.2-25.9 17.4-41.7 17.4h-253.2c-21.6 0-40.7-12.8-48.6-32.6-19-47.5-17-96.1 5.2-130.1 14.4-21.9 43.7-47.9 103.4-54.1-5.2-50.5-19-199.3-18.7-347-40 17.2-76.7 19.5-109.4 6.7-50.1-19.6-89.2-73.2-119.6-163.6-31.4-2.7-59.4-21.3-72.2-48.9-14-30.2-7.5-65.1 17.7-97.6l-50.8-48.7c-9.7-9.4-15.2-22-15.4-35.5-0.2-13.5 4.9-26.3 14.3-36l2.4-2.3c9.5-9.8 22.2-15.1 35.8-15.1q0.1 0 0.1 0c13.6 0 26.3 5.3 35.8 15l11.1 11.3-1.5-4.3c-4.4-12.7-3.5-26.4 2.4-38.5 5.9-12.1 16.2-21.2 28.9-25.6 25-8.5 52.6 3.9 62.8 28.4l25 60.3c20.6 0.3 36.7 6.9 48 19.7 11.8 13.3 17.5 32.4 17.2 57.9 18.7-28.4 49-57.4 97.9-72.7 9.1-2.8 18.8 2.3 21.7 11.4 2.9 9.1-2.2 18.9-11.4 21.7-91.6 28.6-102.8 116.6-103.2 120.4-0.9 7.9-7.2 14.2-15.1 15.2-8 1-15.5-3.6-18.3-11.1l-11.6-30.8c-1.2-3.1-1.4-6.6-0.7-9.8 11.9-53.1 3.6-72.4-2.4-79.2-2.2-2.4-8.8-9.9-31.7-7.6-7.6 0.7-14.8-3.6-17.7-10.6l-29.7-71.5c-3.2-7.7-11.8-11.5-19.6-8.9-4 1.4-7.2 4.2-9 8-1.8 3.8-2.1 8-0.7 12l26.7 77c2.6 7.7-0.4 16.1-7.3 20.4-6.9 4.3-15.8 3.2-21.5-2.6l-65-66.2c-2.9-3-6.9-4.7-11.1-4.7q0 0 0 0c-4.3 0-8.2 1.7-11.2 4.7l-2.3 2.4c-2.9 3-4.5 6.9-4.5 11.1 0.1 4.2 1.8 8.2 4.8 11.1l62.7 60.1c6.9 6.6 7.1 17.6 0.5 24.5-24.3 25.5-32.4 51.1-22.7 72.1 8.6 18.5 30.2 30.5 52.5 29.2 7.9-0.5 15.1 4.5 17.5 12 27.1 85.8 61.8 137.5 103 153.6 29.9 11.7 64.5 6 105.8-17.6 5.4-3.1 12-3 17.4 0.2 5.4 3.1 8.6 8.9 8.5 15.1-2.8 187.3 19.9 387.1 20.1 389.1 0.6 4.8-0.9 9.6-4.1 13.3-3.2 3.6-7.7 5.8-12.6 6-46 1.3-77.7 14.7-94 39.6-16 24.5-16.8 61.2-2 98.2 2.6 6.5 9.2 10.9 16.4 10.9h253.2c6.5 0 12.5-2.6 17-7.1 4.5-4.6 7-10.7 6.9-17.1l-3.8-293.2c-0.1-4.7 1.7-9.1 5-12.4 3.2-3.3 7.7-5.2 12.3-5.2h95.5c8.4 0 15.6 6 17.1 14.2 13.3 72.1 38.4 189.6 38.6 190.8 1 4.6 0.1 9.4-2.5 13.3-2.6 3.9-6.7 6.5-11.3 7.4-12.7 2.3-24.5 11.4-32.7 24.9-11.8 19.9-13.8 46.2-5.4 72.3 2.4 7.2 9.1 12.1 16.9 12.1h213.6c6.6 0 12.7-2.6 17.2-7.3 4.5-4.6 6.9-10.8 6.7-17.2-0.8-24.8-1.9-49.7-3.5-74-1.6-24.2-7.7-62.3-14.8-106.4-12.2-75.4-27.3-169.3-30-255.1-4.3-133.7-15.7-260.5-15.8-261.8-0.8-8.1 4.3-15.7 12.1-18.1 7.8-2.5 16.2 0.9 20.2 8l85.2 151.6c2.7 4.9 3.6 10.5 1.3 15.6-2.3 4.9-6.1 8.3-11.3 9.5-2.2 1-14.6 7.4-19.9 32.7-4.6 22 22.2 30.4 25.2 31.3 6.1 1.7 10.8 6.6 12.3 12.7 2.6 11.1 14.5 43.4 34 46.5 13.9 2.3 40.4 3.7 61.2-12.3 18.5-14.1 29.7-39.5 33.3-75.3 8.1-79.3-13.6-121.5-52.9-198.1-9.2-18-19.6-38.3-30.7-61.2-53.3-110.1-121.5-128.1-122.2-128.3-9.2-2.3-14.9-11.6-12.7-20.9 2.2-9.2 11.4-15 20.6-12.8 3.5 0.7 84.3 20.6 145.5 146.9 10.9 22.5 21.2 42.7 30.3 60.4 41 79.8 65.7 128 56.6 217.5-4.7 45.7-20.4 79.1-46.7 99.3-31.2 23.9-68.4 22.2-87.9 19-36.6-5.9-53.5-44.8-59.5-63.4-21.2-9.1-48.2-31-40.3-68.4 5.2-24.9 16-39.5 25.6-48l-38.7-68.7c3.5 49.3 7.6 116.3 9.8 185.2 2.7 83.5 17.6 176.2 29.6 250.7 7.2 45 13.5 83.8 15.1 109.6 1.7 24.8 2.9 50.1 3.6 75.2 0.5 15.9-5.3 31-16.4 42.5-11.2 11.4-26.1 17.7-42.1 17.7z"/><path class="b" d="m2184.2 2705.1c-180.8-3.3-360.8-59.4-303.3-166.2l609.3 12.1c0.5 0.9 1.1 1.9 1.5 2.8 55.4 104.9-126.4 154.6-307.5 151.3z"/><g style="opacity:.3"><path class="d" d="m2184.2 2705.1c73.3-27.9 58.8-78.7 58.8-78.7 110.8 10.6 202.1-39.8 248.7-72.6 55.4 104.9-126.4 154.6-307.5 151.3z"/></g><path class="b" d="m1727.2 2317.1q-1.9-0.3-3.7-0.7c-61.7-11.4-104.4-78.5-110.3-152.4-5.9-72.8 24-152.3 107-191.1"/><path class="b" d="m2712.5 2133.5c0 273.2-203.8 485.2-494.6 494.6-386.6 12.4-525.4-238.6-525.4-511.8 0-273.1 231.2-494.7 504.3-494.7 273.2 0 515.7 238.7 515.7 511.9z"/><g style="opacity:.3"><path class="d" d="m2712.5 2133.5c0 273.1-203.8 485.3-494.6 494.6-88.6 2.9-164.2-8.2-228.1-30.1 40.3 6 84.2 8.5 131.9 7 290.7-9.3 494.5-221.5 494.5-494.6 0-218.1-154.6-414.3-356-484.6 246.2 33.3 452.3 255.9 452.3 507.7z"/></g><path class="d" d="m1733.9 2336.8c154.7 205.8 578.5 266.5 832.2-55.4l2.7-189c-185.2-368.8-697.3-424.6-838.3-148.8-36.6 130.4-35.1 261.4 3.4 393.2z"/><g style="opacity:.3"><path class="h" d="m2568.8 2092.4l-2.7 189c-253.7 321.9-677.5 261.3-832.2 55.4-0.2-0.7-0.4-1.4-0.6-2.1 78.9 49 183.1 76.3 317.1 72 247.7-8 432.3-163 481.5-377.6 13.4 20 25.8 41.1 36.9 63.3z"/></g><path class="d" d="m2115.5 2524.4q-3.5 0-6.9-0.1c-158.9-1.8-307.8-69.7-388.6-177.1-5.7-7.6-4.2-18.5 3.5-24.2 7.6-5.8 18.5-4.2 24.2 3.4 74.4 99 212.9 161.6 361.3 163.3 171.3 1.9 327.3-74.2 439.9-214.4l2.5-178.8c-116-227.1-339.3-308.4-496-309q-0.9 0-1.8 0c-142.3 0-254.4 59.7-307.7 164-4.3 8.5-14.8 11.9-23.3 7.6-8.5-4.4-11.9-14.8-7.5-23.4 58.6-114.6 185.1-182.8 338.6-182.8q0.9 0 1.8 0c100.4 0.3 205.8 30.1 296.8 83.9 100 59.1 180.2 144.8 232 247.9 1.2 2.4 1.9 5.2 1.8 8l-2.7 189c0 3.8-1.3 7.5-3.7 10.5-118.2 149.9-282.8 232.2-464.2 232.2z"/><path fill-rule="evenodd" class="d" d="m2196.3 2645.9c-156.2 0-280.2-43.6-369.2-129.7-120.8-117-146.2-282-146.2-399.9 0-136.2 55.1-264.9 155-362.2 99.3-96.6 229.5-149.8 366.7-149.8 283.9 0 533 247.3 533 529.2 0 287.1-215.1 502.4-511.4 511.9q-14.1 0.5-27.9 0.5zm6.3-1007c-264 0-487 218.6-487 477.4 0 111.2 23.5 266.4 135.6 375 87.2 84.4 212.3 124.6 371.9 119.5 276.9-8.9 477.8-209.6 477.8-477.3 0-263.5-232.8-494.6-498.3-494.6z"/><path class="b" d="m2802.7 2196.8c-9 92.3-73.8 161-144.8 153.5-70.9-7.5-121-88.4-112-180.7 9.1-92.3 73.9-161 144.8-153.5 70.9 7.5 121.1 88.4 112 180.7z"/><g style="opacity:.3"><path class="d" d="m2802.7 2196.8c-9.1 92.3-73.8 161-144.8 153.5-48-5.1-86.5-43.9-103.5-97.1 15.7 12.1 33.8 19.9 53.5 22 70.9 7.6 135.7-61.2 144.7-153.4 3-29.8-0.2-58.4-8.4-83.7 40.7 31.5 65 92.1 58.5 158.7z"/></g><path fill-rule="evenodd" class="d" d="m2668.3 2368.2q-6.1 0-12.2-0.7c-80.2-8.5-137.4-98-127.4-199.6 5.6-56.9 30.9-107.5 69.5-139 28-22.8 61.5-33.5 94.3-30 80.3 8.5 137.4 98.1 127.5 199.6-5.6 56.9-30.9 107.5-69.5 139-24.6 20-53.4 30.7-82.2 30.7zm11.7-335.3c-20.8 0-41.4 7.8-59.9 22.9-31.5 25.7-52.2 67.7-56.9 115.5-8.1 82.7 35.2 155.3 96.6 161.8 23.8 2.5 47.6-5.3 68.8-22.5 31.5-25.6 52.2-67.7 56.9-115.5 8.1-82.7-35.3-155.2-96.6-161.8q-4.4-0.4-8.9-0.4z"/><path fill-rule="evenodd" class="d" d="m2708.4 2313.7q-6.4 0-12.6-1.2c-48.7-9.5-77-70.9-64.5-139.8 7.2-40 27.7-74.9 54.7-93.3 17.4-11.9 36.3-16.3 54.7-12.7 48.7 9.5 77 70.9 64.5 139.8-7.2 40-27.7 74.9-54.7 93.3-13.5 9.2-27.8 13.9-42.1 13.9zm19.9-219.9c-10.7 0-20 4.6-26.4 9-20.8 14.2-36.9 42.3-42.8 75-9.3 51.6 9.9 100.6 42.1 106.9 13.6 2.7 25.7-3 33.4-8.3 20.8-14.2 36.9-42.3 42.8-75 9.3-51.6-9.9-100.6-42.1-106.9q-3.6-0.7-7-0.7z"/><path class="d" d="m1727.2 2334.4q-1.1 0-2.3-0.2-2.5-0.3-5-0.9c-66.1-12.4-117.1-81.4-124-167.9-5.8-71.4 21.9-163.7 117-208.2 8.7-4 19-0.3 23 8.4 4.1 8.7 0.3 19-8.3 23-67.2 31.4-103.5 96.5-97.1 174 5.6 70 46 127.5 96.1 136.7q0.4 0.1 0.9 0.2 1 0.3 2 0.4c9.5 1.3 16.2 10 14.9 19.5-1.2 8.7-8.6 15-17.2 15z"/><path class="d" d="m2599.4 2065.5c-5.8 0-11.2-3.5-13.4-9.2-132.2-340.2-474.4-394.7-675.3-324.8-7.5 2.7-15.8-1.3-18.4-8.9-2.6-7.5 1.4-15.7 8.9-18.3 211.8-73.8 572.6-16.6 711.7 341.5 2.9 7.5-0.8 15.8-8.3 18.7-1.7 0.7-3.4 1-5.2 1z"/><path class="d" d="m2116.3 2586.4c-135.5 0-260-46.2-333.6-125.8-5.4-5.9-5-15 0.9-20.4 5.8-5.4 14.9-5.1 20.4 0.8 77.4 83.8 217 127.5 364.4 114.1 172.4-15.7 322.3-105.2 411.3-245.7 4.3-6.8 13.2-8.8 19.9-4.5 6.8 4.3 8.8 13.2 4.5 19.9-93.8 148.2-251.7 242.6-433.1 259.1-18.4 1.6-36.6 2.5-54.7 2.5z"/><g style="opacity:.5"><path class="i" d="m2194.6 1882.9c-290.7-98.9-453.7 35.2-433.6 323.5 0.7 10.2 13.8 14.1 19.7 5.7 31.4-43.8 102.2-136.7 179.4-197.8 74.9-59.3 180.8-95.2 234.2-110.5 10.2-3 10.5-17.4 0.3-20.9z"/></g><g style="opacity:.5"><path class="i" d="m2290.9 2295.5c-37.6 19.2-102.5 49-166.9 63.6-31.5 7.1-35.5 51-5.3 62.7 11.3 4.4 25 7.8 41.6 9.3 84.7 7.7 162.6-26 190.6-63.6 12.3-16.6 8.2-36.1-0.2-52.7-11.1-21.9-37.9-30.5-59.8-19.3z"/></g><g style="opacity:.5"><path class="i" d="m2451.5 2243.9c-7 27.3-30.7 44.8-52.8 39.1-22.1-5.7-26.9-30.5-19.9-57.8 7.1-27.3 23.2-46.7 45.4-41 22.1 5.7 34.3 32.5 27.3 59.7z"/></g><g style="opacity:.3"><path class="d" d="m1723.5 2316.4c-61.7-11.4-104.4-78.5-110.3-152.4 37.7 53.2 80.7 0.4 85.1-1z"/></g><path class="d" d="m2200.4 2722.6q-5 0-9.8-0.1c-102.7-1.1-235.4-20.9-299.5-73-40.1-32.7-49.1-74.8-25.4-118.8 4.5-8.5 15.1-11.6 23.5-7.1 8.4 4.6 11.5 15.1 7 23.5-15.8 29.3-10.5 53.3 16.8 75.5 103.5 84.2 453.1 88.4 550.1 6.7 23.8-20 27.6-42.2 12-69.9-4.7-8.3-1.7-18.9 6.6-23.6 8.4-4.7 18.9-1.7 23.6 6.6 23.8 42.3 16.7 82.6-19.9 113.4-58.5 49.4-183.7 66.8-285 66.8z"/><path class="d" d="m2031.9 2700.3c-3.1 0-6.1-1.2-8.4-3.6-38.3-40.5-11.4-93.2-10.3-95.4 3-5.6 10-7.8 15.6-4.9 5.7 3 7.9 9.9 4.9 15.6-0.8 1.6-20.3 40.4 6.6 68.8 4.4 4.6 4.2 11.9-0.5 16.3-2.2 2.1-5 3.2-7.9 3.2z"/><path class="d" d="m2296 2707.3q-1.8 0-3.7-0.6c-6-2-9.3-8.6-7.3-14.6 10.8-32.2-3.7-57.5-3.8-57.8-3.2-5.5-1.4-12.5 4.2-15.8 5.5-3.2 12.5-1.3 15.8 4.2 0.8 1.4 19.7 34.7 5.7 76.7-1.6 4.8-6.1 7.9-10.9 7.9z"/><path class="d" d="m2130.1 3239.5l-47-14.5c-13.6-4.1-33.5-10.4-46.9-14.2 7.9-0.8 16.3-1.1 24.4-1.6 15.6-0.9 57.6-3.2 73.8-4.1 27.5 0.3 22.5 40.9-4.3 34.4z"/><path class="d" d="m1818.1 2763.8l33.3 88-62.9-69.9c-17.3-21.8 18.1-43.4 29.6-18.1z"/><path class="d" d="m1746 2650.1c-12.9 5.9-26.6 13.7-36.9 22.2-5.6 4.9-10.2 9.3-11 13.6-0.8 10.5 7.2 19.5 18 20.4 5.9-0.1 13.1-1.7 20.5-3.9 7.4-2.2 15.1-5 23.4-8-6.5 17.5-18 31.6-35.5 40.4-41.1 16.9-75.7-26.6-57.7-65 15.1-26.8 39.6-38.5 65.2-51.4 21.4-8.9 35 21.9 14 31.7z"/><path class="d" d="m1618.7 2689.6c17.8-0.8 34.5 7.8 48.9 16.9 15.2 10.9 15.7 8.8-2.5 8.3-12.7 0.2-26.3 1.1-37.2 7.7-0.2 0.2-0.8 0.5 0 0.5-22.3 5.4-31.1-26.7-9.2-33.4z"/><path class="d" d="m1662.2 2820.1c33.4-1.2 63.1-27.5 45.8-62.2 24 22.9 14.7 60.5-10 79.5-8.2 6.9-17.6 12.1-27.3 16.3-25.5 9.4-35.4-29.7-8.5-33.6z"/><path class="d" d="m1701.2 2886.8q-12.4 0-25.8-2.5c-7.8-1.5-13-9.1-11.5-16.9 1.5-7.8 9.1-13 16.9-11.5 25.3 4.7 47 0.9 64.3-11.5 35.7-25.5 43.8-78.8 43.9-79.4 1.1-7.9 8.4-13.3 16.3-12.2 7.9 1.1 13.4 8.4 12.3 16.3-0.4 2.7-9.8 65.9-55.5 98.7-17.7 12.6-38.1 19-60.9 19z"/><path class="b" d="m1990.4 2772c-7.4 32-17.8 96.7-0.9 160 3.4 12.6 13.2 22.6 25.8 25.8 34.7 8.7 116.2 22.7 252 9.2 14.9-1.5 27.3-12.2 31-26.8 12.2-47.7 14.6-99.2 1.6-156.7-2.4-10.9-9.8-20-19.9-24.7-63.6-29.3-170.3-39-264.5-13.1-12.6 3.4-22.2 13.6-25.1 26.3z"/><path fill-rule="evenodd" class="d" d="m2159.8 2987c-73.4 0-121.9-8.7-148-15.2-17.6-4.5-31.5-18.3-36.2-36.1-17.7-66-7.2-132.9 0.7-166.9 4.1-18 17.7-32.2 35.4-37.1 91.5-25.1 201.8-19.5 274.3 14 14.1 6.5 24.6 19.4 28 34.6 12.7 56 12.1 109.5-1.7 163.5-5.3 20.4-22.8 35.5-43.6 37.5-41.1 4.1-77.3 5.7-108.9 5.7zm-28.3-241.8c-38.1 0-76.9 4.7-112.2 14.4-7.4 2-13.1 8-14.9 15.7-7.2 31.4-17 93-1 153 2.1 7.6 8 13.6 15.5 15.5 35.5 8.9 114.8 21.9 246.9 8.8 8.8-0.9 16.3-7.3 18.5-16 12.7-49.4 13.2-98.5 1.5-150-1.4-6.4-5.9-11.9-11.9-14.7-38.2-17.6-89.5-26.7-142.4-26.7zm-141.1 26.8z"/><path class="d" d="m2241.5 2983.7c-2 0-4-0.4-5.9-1.3-7.3-3.2-10.5-11.8-7.3-19 21.8-48.5 26-164.1 0.5-211.7-3.8-7-1.2-15.7 5.9-19.5 7-3.8 15.7-1.2 19.5 5.9 30 55.7 25.7 180.8 0.5 237.1-2.4 5.3-7.7 8.5-13.2 8.5z"/><path class="d" d="m2140.9 2980.8c-6.4 0-11.6-5.2-11.6-11.5v-113.8l-42.4-9.5c-5.3-1.2-9-5.9-9-11.3v-102.2c0-6.3 5.1-11.5 11.5-11.5 6.4 0 11.6 5.2 11.6 11.5v92.9l42.4 9.6c5.3 1.1 9 5.8 9 11.2v123.1c0 6.3-5.1 11.5-11.5 11.5z"/><path fill-rule="evenodd" class="d" d="m2184 2830.7c-16.6 0-30.1-13.5-30.1-30.1 0-16.6 13.5-30.2 30.1-30.2 16.6 0 30.2 13.6 30.2 30.2 0 16.6-13.6 30.1-30.2 30.1zm0-42.9c-7.1 0-12.8 5.7-12.8 12.8 0 7 5.7 12.8 12.8 12.8 7.1 0 12.8-5.8 12.8-12.8 0-7.1-5.7-12.8-12.8-12.8z"/><path class="d" d="m2048.3 2908.1c0 4.7-3.8 8.5-8.5 8.5-4.7 0-8.5-3.8-8.5-8.5 0-4.6 3.8-8.4 8.5-8.4 4.7 0 8.5 3.8 8.5 8.4z"/><path class="d" d="m2088.5 2908.1c0 4.7-3.8 8.5-8.4 8.5-4.7 0-8.5-3.8-8.5-8.5 0-4.6 3.8-8.4 8.5-8.4 4.6 0 8.4 3.8 8.4 8.4z"/><path class="b" d="m2439 2816.6c0 0-89.6-2.1-132.5 5.5 0 0-39.4 44.3 0 73.9 0 0 87 3.7 139 3.7 0 0 16.6-37.6-6.5-83.1z"/><path fill-rule="evenodd" class="d" d="m2445.5 2914.1c-51.7 0-138.7-3.6-139.6-3.7-2.9-0.1-5.8-1.1-8.1-2.9-13.5-10.2-21.5-23.5-23-38.5-2.9-28.9 18.5-53.8 20.9-56.5 2.2-2.5 5.1-4.1 8.3-4.7 43.8-7.7 131.6-5.7 135.4-5.6 5.3 0.1 10.1 3.2 12.5 7.9 25.9 51 7.6 93.6 6.8 95.4-2.3 5.2-7.5 8.6-13.2 8.6zm-133.6-32.3c17.5 0.7 79 3 123 3.4 2.4-10.9 4.4-30.8-5.2-54.3-22.3-0.3-81.1-0.5-115.4 4.5-4.9 6.9-11.9 19.5-10.8 30.8 0.6 5.8 3.4 10.9 8.4 15.6z"/><path class="b" d="m1984.4 2803.8l-72.4 3.7c0 0-32.7 17.3-5.7 81.3h75.5c-2.6-29-2.2-57.4 2.6-85z"/><path fill-rule="evenodd" class="d" d="m1981.8 2903.3h-75.5c-5.8 0-11.1-3.5-13.3-8.9-31.8-75.3 10.5-98.7 12.3-99.7 1.8-1 3.9-1.5 6-1.6l72.4-3.7c4.4-0.3 8.6 1.5 11.5 4.8 3 3.3 4.2 7.7 3.4 12.1-4.3 24.9-5.1 51.5-2.4 81.2 0.4 4-1 8.1-3.7 11.1-2.7 3-6.6 4.7-10.7 4.7zm-65.7-28.9h50.2c-1.1-19.5-0.6-37.8 1.3-55.3l-50.5 2.6c-4 4.2-13.2 18.2-1 52.7z"/><path class="d" d="m1911 2805.6l22.7-73.1 6 76.3z"/><path class="d" d="m1900.5 3000q-0.8 0-1.7-0.1c-9.5-0.9-16.5-9.4-15.6-18.9l8.7-89.5c0.9-9.5 9.4-16.5 18.9-15.6 9.5 0.9 16.5 9.4 15.6 18.9l-8.7 89.5c-0.8 9-8.4 15.7-17.2 15.7z"/><path class="d" d="m2423.7 2824.7l-22.2-79.8 52.9 63.7z"/><path class="d" d="m2154.1 3096.4c-73.8 0-113.9-6-116-6.3-3.1-0.5-5.9-2.2-7.7-4.8l-26.2-37.2c-74.7-13.8-107.8-30.4-109.2-31.1-5.7-2.9-7.9-9.8-5-15.5 2.9-5.7 9.8-7.9 15.5-5.1 0.6 0.3 33.6 16.7 107.5 29.8 3 0.5 5.6 2.2 7.4 4.7l26 37c16.8 2 77.3 8.1 173.5 3.9l15.6-27.7c2.1-3.6 5.9-5.8 10.1-5.8 0.1 0 0.2 0 1.2 0 12.9 0 133.1-0.9 201-30.6 5.9-2.6 12.7 0.1 15.3 5.9 2.5 5.9-0.1 12.7-6 15.2-67 29.4-176.2 32.3-204.8 32.6l-15.5 27.3c-1.9 3.4-5.5 5.7-9.5 5.8-27.2 1.4-51.6 1.9-73.2 1.9z"/><path class="d" d="m2512.6 2962.1c-2.3 0-4.7-0.6-6.9-1.8-7-3.9-9.5-12.7-5.7-19.6 51.8-93.4 171.5-68 176.5-66.9 7.8 1.7 12.7 9.4 11 17.2-1.7 7.8-9.4 12.7-17.2 11-4.2-0.9-103.7-21.7-145 52.7-2.7 4.7-7.6 7.4-12.7 7.4z"/><path class="d" d="m2521.9 3053.5c14.6-4.8 31-11 40.6-23.9-1.5 18.3-13.2 33.8-24.4 47.8 0 0-16.2-23.9-16.2-23.9z"/><path class="d" d="m2538.6 2844.8q-0.6 0-1.3-0.1c-3.6-0.4-6.8-2.5-8.7-5.7l-43.3-75.1c-2.7-4.7-1.7-10.7 2.3-14.4 52.1-46.5 110.9-27.3 113.3-26.5 6.1 2 9.3 8.6 7.3 14.6-2.1 6.1-8.6 9.3-14.6 7.3-2-0.7-43.7-13.8-83.4 16l31.6 54.7c16.4-11.8 49.5-28.9 95.3-18.9 6.2 1.3 10.2 7.5 8.8 13.7-1.3 6.2-7.5 10.2-13.7 8.8-52.9-11.5-84.8 21.6-85.1 22-2.2 2.3-5.3 3.6-8.5 3.6z"/><path class="d" d="m1834.9 2788.2c-7.9 0-16.9-1.3-27.2-4.3-6.1-1.8-9.6-8.2-7.8-14.3 1.8-6.1 8.2-9.6 14.3-7.8 22.5 6.5 39.4 3.2 47.5-9.4 10.8-16.8 5.3-46.1-12.6-66.8-4.1-4.8-3.6-12.1 1.3-16.3 4.8-4.2 12.1-3.6 16.3 1.2 24.9 29 31 68.7 14.4 94.4-5.1 8-18.6 23.3-46.2 23.3z"/><path class="d" d="m1920.4 3356.6c37.6 5.7 70.9 32.4 86 66.9-20.6-22.3-50.6-35.9-80.9-33-1.5 0.2-3.4 0.2-4.5 0.8 0 0-0.6-34.7-0.6-34.7z"/><path class="d" d="m2263.1 3396.7c58.2-3.9 134.7 3.9 165.8 60.3-18.1-23.1-47.4-33.4-75.7-35.4-27.7-2.1-56.8 1.5-83.3 9-24.6 6.4-32-30.3-6.8-33.9z"/><path class="d" d="m2067.6 3514.3c-3.3 0-5.8-0.2-7.2-0.3h-195.5q-0.6 0-1.1-0.1c-57.9-4.3-77.8-37.4-78.6-38.8-4-6.9-1.6-15.8 5.3-19.8 6.8-3.9 15.5-1.7 19.6 5.1 0.8 1.2 14.3 21.4 55.3 24.7h195.8q1.1 0 2.2 0.2c1.3 0.1 36.5 4.3 59.7-32.1 4.3-6.7 13.3-8.6 20-4.3 6.7 4.3 8.7 13.2 4.4 19.9-26 40.6-63.3 45.5-79.9 45.5z"/><path fill-rule="evenodd" class="d" d="m2446.6 3517.5h-187c-34.5 0-52.7-19.9-58.7-26.4q-0.4-0.4-0.7-0.8c-5.6-4.8-6.7-13.2-2.3-19.3 4.7-6.5 13.7-8 20.2-3.3 1.6 1.2 2.7 2.4 4.1 3.9 4.6 5.1 15.6 17 37.4 17h186.2c4.7-0.6 36.5-5.6 41-33 1.2-7.9 8.6-13.3 16.5-12 7.9 1.3 13.2 8.7 12 16.6-6.7 41-47 55.3-67.4 57.2q-0.6 0.1-1.3 0.1zm-246.2-26.9q0.5 0.3 0.8 0.5-0.4-0.3-0.8-0.5z"/><path class="d" d="m2333 3361.9c-35.3 0-67.7-5.6-86.1-12.2-6-2.2-9.1-8.8-7-14.8 2.2-6 8.8-9.1 14.8-6.9 46.5 16.7 172.4 23.2 205.1-40.2 2.9-5.7 9.9-7.9 15.6-5 5.6 2.9 7.9 9.9 4.9 15.6-25.1 48.8-90 63.5-147.3 63.5z"/><path class="d" d="m2030.3 3348.1c-48.3 0-97.7-13.6-121.5-26.9-5.5-3.1-7.5-10.2-4.4-15.7 3.1-5.6 10.2-7.6 15.7-4.5 34.1 19.1 159 46.6 199.2-8.2 3.8-5.2 11-6.3 16.1-2.5 5.2 3.7 6.3 11 2.5 16.1-22.7 31-64.7 41.7-107.6 41.7z"/><g style="opacity:.3"><path class="d" d="m2192.6 2734.9c0 0 173.8 17.7 278.7-25.6 0 0 88.5 19.8 132.8 206.7 44.3 187-57.9 133.8-57.9 133.8l30.9-37.3c0 0-38 27.9-75.3-1.9 0 0-20.5 29.7 21 54.8 0 0 17.3 91.3 102.2 57.7 85-33.6 69.1-147.2 69.1-147.2-29.5-129.5-85-232-160.3-313.8l-42.3-25c-76.1 53.9-186.5 70.6-314.8 67.8"/></g><g style="opacity:.3"><path class="d" d="m2503.2 3514.9c-7.9 33.7-28.1 42.4-28.1 42.4h-173.2c0 0 167.9-11 112.5-117.4l-34.5-20.1c0 0 11.5-18.4 17-49.4 18.7-5.1 63.1-19.7 71.3-45.2 10.5-32.5 1.5-16.9-2.1-15.1-3.2 1.5-24.4 20.6-66.5 32.3 0.3-13-0.8-27.3-3.9-42.8-8-39.9-15-146.3-19.6-233.5 17.5-3.5 55.9-11.8 67.9-18.6l-3.2-22.2-66.1 14.9c-2.9-58.1-4.6-102.3-4.6-102.3l-22-0.7c0 0 6.4 59.2-54.9 78.7-61.3 19.4-274.1 26.1-287.2-62 149.6 4.2 253.6-33.9 215-204.1l64.5 7.2 13.7 23.8 7.3 41.3c0 0-26.8 40.3 27.6 41.7 54.4 1.5 51-26.2 51-41.7 0-15.6 20.6-69.2 20.6-69.2l36.3 99.1-3 84.9 24.2 247.1 24.4 166.7c0 0 23.5 130.5 15.6 164.2z"/></g><g style="opacity:.3"><path class="d" d="m2132.2 3222.3l3.8 293.3c0.3 22.9-18.2 41.7-41.2 41.7h-253.2c-14.2 0-27.2-8.6-32.5-21.7q-0.7-1.9-1.4-3.8c172.9 31.2 242.8-46.2 235.7-98.6-2-14.7-3.8-38.4-5.3-65 18.5-1.3 70.2-7.4 84.4-33.6 17.3-32.1 2.5-23.1 2.5-23.1l-26.7 10.4c0 0-28.9 17.7-61.7 17.7-3.1-62.6-4.7-128.9-4.7-128.9l62.5 5.9 74.6 5.7z"/></g><g style="opacity:.3"><path class="d" d="m1900.3 3013.6c0-10.3 0-20.6 0.2-30.9-117 66.7-188.3-1.6-233.9-145.9-36.5 2.2-71.9-23-74.6-60.2 96.5 74.7 99.8-49.2 99.8-49.2l18.7 13.4c20.7 27.6 0 66.4 0 66.4 0 0 58.6 132.9 116.8 109.4 58.3-23.4 73-70.3 73-70.3l8.9 53.4z"/></g><g style="opacity:.3"><path class="d" d="m1691.8 2678.1c0 0 11.9 26.4 39.8 7.6 27.9-18.7 39.4-38 39.4-38 0 0 15 10.6 18.3 17.8 3.4 7.2 12.5 22.1 8.9 27-3.6 4.8-16.1 38.2-16.1 38.2 0 0-61.1 14.7-78.4-3.4-17.3-18-20.8-24-20.8-24"/></g><path class="d" d="m2685.9 3571.7c-86.7 2.7-172.9-1.2-259.1 2.9-22.5-2.2-45.3-4-68-3.8-36.3-0.3-72.7 3.8-109.1 3.9-62.8 0.7-154-0.3-217.9-0.1-42.8-0.2-93.7 0.2-136.2 0.8-27.3-0.8-54.5-3.3-81.7-5.3-29.3 1.9-78.2 4.6-113.9 5.8-12.9 0.4-25.8 0.9-38.7 1.2 12.6-3.1 25.1-5.9 37.7-8.7 38.2-8.5 76.4-17 114.9-23.9 27.2-2 54.5-4.5 81.8-5.3 42.4 0.6 93.7 1 136.5 0.8 64.2 0.3 155-0.9 218.3-0.1 36.4 0 72.7 4.2 109 3.9 36.4 0.5 73-6.4 109.2-1 72.6 8.9 145 18.3 217.2 28.9z"/></svg>